<mxfile host="Electron" modified="2024-03-27T17:06:57.414Z" agent="Mozilla/5.0 (Macintosh; Intel Mac OS X 10_15_7) AppleWebKit/537.36 (KHTML, like Gecko) draw.io/24.1.0 Chrome/120.0.6099.109 Electron/28.1.0 Safari/537.36" etag="mgTbrL82dgTFd50jY1ES" version="24.1.0" type="device">
  <diagram id="dt-Ke0_uN41u_46LM2hx" name="Page-1">
    <mxGraphModel dx="1536" dy="939" grid="1" gridSize="10" guides="1" tooltips="1" connect="1" arrows="1" fold="1" page="1" pageScale="1" pageWidth="850" pageHeight="1100" background="#ffffff" math="0" shadow="0">
      <root>
        <mxCell id="0" />
        <mxCell id="1" parent="0" />
        <mxCell id="q5o3RwCFdbamAJQa6zpr-83" value="" style="whiteSpace=wrap;html=1;aspect=fixed;" parent="1" vertex="1">
          <mxGeometry x="556" y="95" width="215" height="215" as="geometry" />
        </mxCell>
        <mxCell id="q5o3RwCFdbamAJQa6zpr-44" value="" style="group" parent="1" vertex="1" connectable="0">
          <mxGeometry x="456" y="200" width="80" height="66.10000000000002" as="geometry" />
        </mxCell>
        <mxCell id="q5o3RwCFdbamAJQa6zpr-41" value="" style="group" parent="q5o3RwCFdbamAJQa6zpr-44" vertex="1" connectable="0">
          <mxGeometry width="80" height="48.05" as="geometry" />
        </mxCell>
        <mxCell id="q5o3RwCFdbamAJQa6zpr-42" value="&lt;b id=&quot;docs-internal-guid-4c230aec-7fff-2b1c-62a4-25517e6297ba&quot; style=&quot;font-weight: normal ; font-size: 7px&quot;&gt;&lt;p style=&quot;line-height: 1.2 ; text-align: center ; margin-top: 0pt ; margin-bottom: 0pt ; font-size: 7px&quot; dir=&quot;ltr&quot;&gt;&lt;br&gt;&lt;/p&gt;&lt;p style=&quot;line-height: 1.2 ; text-align: center ; margin-top: 0pt ; margin-bottom: 0pt ; font-size: 7px&quot; dir=&quot;ltr&quot;&gt;&lt;span style=&quot;font-size: 7px ; font-family: &amp;quot;inter&amp;quot; , sans-serif ; color: rgb(0 , 0 , 0) ; background-color: transparent ; font-weight: 400 ; font-style: normal ; font-variant: normal ; text-decoration: none ; vertical-align: baseline&quot;&gt;HTTPS&lt;br&gt;Webhook signed and validated&lt;/span&gt;&lt;/p&gt;&lt;/b&gt;" style="text;whiteSpace=wrap;html=1;fontSize=7;fillColor=none;strokeColor=none;gradientColor=#ffffff;" parent="q5o3RwCFdbamAJQa6zpr-41" vertex="1">
          <mxGeometry width="80" height="29.99999999999999" as="geometry" />
        </mxCell>
        <mxCell id="q5o3RwCFdbamAJQa6zpr-43" value="&lt;p style=&quot;color: rgb(0, 0, 0); font-family: Helvetica; font-size: 8px; font-style: normal; font-variant-ligatures: normal; font-variant-caps: normal; font-weight: 400; letter-spacing: normal; orphans: 2; text-align: center; text-indent: 0px; text-transform: none; widows: 2; word-spacing: 0px; -webkit-text-stroke-width: 0px; background-color: rgb(248, 249, 250); text-decoration-thickness: initial; text-decoration-style: initial; text-decoration-color: initial; line-height: 1.2; margin-top: 0pt; margin-bottom: 0pt;&quot; dir=&quot;ltr&quot;&gt;&lt;/p&gt;" style="sketch=0;aspect=fixed;pointerEvents=1;shadow=0;dashed=0;html=1;strokeColor=#36393d;labelPosition=center;verticalLabelPosition=bottom;verticalAlign=top;align=center;fillColor=#eeeeee;shape=mxgraph.mscae.enterprise.lock;fontSize=9;" parent="q5o3RwCFdbamAJQa6zpr-44" vertex="1">
          <mxGeometry x="32.960000000000036" y="48.05000000000001" width="14.08" height="18.05" as="geometry" />
        </mxCell>
        <mxCell id="q5o3RwCFdbamAJQa6zpr-49" value="" style="whiteSpace=wrap;html=1;aspect=fixed;" parent="1" vertex="1">
          <mxGeometry x="214" y="95" width="215" height="215" as="geometry" />
        </mxCell>
        <mxCell id="q5o3RwCFdbamAJQa6zpr-51" style="edgeStyle=orthogonalEdgeStyle;rounded=0;orthogonalLoop=1;jettySize=auto;html=1;entryX=0;entryY=0.5;entryDx=0;entryDy=0;entryPerimeter=0;" parent="1" source="q5o3RwCFdbamAJQa6zpr-52" edge="1">
          <mxGeometry relative="1" as="geometry">
            <mxPoint x="194" y="200.25" as="targetPoint" />
          </mxGeometry>
        </mxCell>
        <mxCell id="q5o3RwCFdbamAJQa6zpr-52" value="" style="shape=actor;whiteSpace=wrap;html=1;" parent="1" vertex="1">
          <mxGeometry x="54" y="185" width="20" height="30" as="geometry" />
        </mxCell>
        <mxCell id="q5o3RwCFdbamAJQa6zpr-53" value="&lt;font style=&quot;font-size: 10px;&quot;&gt;Create secret&lt;/font&gt;" style="text;html=1;strokeColor=none;fillColor=none;align=center;verticalAlign=middle;whiteSpace=wrap;rounded=0;" parent="1" vertex="1">
          <mxGeometry x="84" y="175" width="90" height="30" as="geometry" />
        </mxCell>
        <mxCell id="q5o3RwCFdbamAJQa6zpr-54" value="" style="group" parent="1" vertex="1" connectable="0">
          <mxGeometry x="114" y="195" width="30" height="48.05000000000001" as="geometry" />
        </mxCell>
        <mxCell id="q5o3RwCFdbamAJQa6zpr-55" value="&lt;b id=&quot;docs-internal-guid-4c230aec-7fff-2b1c-62a4-25517e6297ba&quot; style=&quot;font-weight: normal ; font-size: 7px&quot;&gt;&lt;p style=&quot;line-height: 1.2 ; text-align: center ; margin-top: 0pt ; margin-bottom: 0pt ; font-size: 7px&quot; dir=&quot;ltr&quot;&gt;&lt;br&gt;&lt;/p&gt;&lt;p style=&quot;line-height: 1.2 ; text-align: center ; margin-top: 0pt ; margin-bottom: 0pt ; font-size: 7px&quot; dir=&quot;ltr&quot;&gt;&lt;span style=&quot;font-size: 7px ; font-family: &amp;quot;inter&amp;quot; , sans-serif ; color: rgb(0 , 0 , 0) ; background-color: transparent ; font-weight: 400 ; font-style: normal ; font-variant: normal ; text-decoration: none ; vertical-align: baseline&quot;&gt;HTTPS&lt;/span&gt;&lt;/p&gt;&lt;p style=&quot;line-height: 1.2 ; text-align: center ; margin-top: 0pt ; margin-bottom: 0pt ; font-size: 7px&quot; dir=&quot;ltr&quot;&gt;&lt;br&gt;&lt;/p&gt;&lt;/b&gt;" style="text;whiteSpace=wrap;html=1;fontSize=7;fillColor=none;strokeColor=none;gradientColor=#ffffff;" parent="q5o3RwCFdbamAJQa6zpr-54" vertex="1">
          <mxGeometry width="30" height="30" as="geometry" />
        </mxCell>
        <mxCell id="q5o3RwCFdbamAJQa6zpr-56" value="&lt;p style=&quot;color: rgb(0, 0, 0); font-family: Helvetica; font-size: 8px; font-style: normal; font-variant-ligatures: normal; font-variant-caps: normal; font-weight: 400; letter-spacing: normal; orphans: 2; text-align: center; text-indent: 0px; text-transform: none; widows: 2; word-spacing: 0px; -webkit-text-stroke-width: 0px; background-color: rgb(248, 249, 250); text-decoration-thickness: initial; text-decoration-style: initial; text-decoration-color: initial; line-height: 1.2; margin-top: 0pt; margin-bottom: 0pt;&quot; dir=&quot;ltr&quot;&gt;&lt;/p&gt;" style="sketch=0;aspect=fixed;pointerEvents=1;shadow=0;dashed=0;html=1;strokeColor=#36393d;labelPosition=center;verticalLabelPosition=bottom;verticalAlign=top;align=center;fillColor=#eeeeee;shape=mxgraph.mscae.enterprise.lock;fontSize=9;" parent="q5o3RwCFdbamAJQa6zpr-54" vertex="1">
          <mxGeometry x="7.960000000000008" y="30" width="14.08" height="18.05" as="geometry" />
        </mxCell>
        <mxCell id="q5o3RwCFdbamAJQa6zpr-57" value="&lt;font style=&quot;font-size: 10px;&quot;&gt;https://useglint.io&lt;/font&gt;" style="text;html=1;strokeColor=none;fillColor=#FFFFFF;align=center;verticalAlign=middle;whiteSpace=wrap;rounded=0;" parent="1" vertex="1">
          <mxGeometry x="164" y="221.5" width="90" height="30" as="geometry" />
        </mxCell>
        <mxCell id="q5o3RwCFdbamAJQa6zpr-58" style="edgeStyle=orthogonalEdgeStyle;rounded=0;orthogonalLoop=1;jettySize=auto;html=1;entryX=0;entryY=0.5;entryDx=0;entryDy=0;entryPerimeter=0;fontSize=10;" parent="1" source="q5o3RwCFdbamAJQa6zpr-59" target="q5o3RwCFdbamAJQa6zpr-61" edge="1">
          <mxGeometry relative="1" as="geometry" />
        </mxCell>
        <mxCell id="q5o3RwCFdbamAJQa6zpr-59" value="" style="outlineConnect=0;dashed=0;verticalLabelPosition=bottom;verticalAlign=top;align=center;html=1;shape=mxgraph.aws3.cloudfront;fillColor=#F58536;gradientColor=none;fontSize=10;" parent="1" vertex="1">
          <mxGeometry x="194" y="178.5" width="35.37" height="43" as="geometry" />
        </mxCell>
        <mxCell id="q5o3RwCFdbamAJQa6zpr-60" style="edgeStyle=orthogonalEdgeStyle;rounded=0;orthogonalLoop=1;jettySize=auto;html=1;fontSize=9;entryX=0;entryY=0.5;entryDx=0;entryDy=0;" parent="1" source="q5o3RwCFdbamAJQa6zpr-61" target="q5o3RwCFdbamAJQa6zpr-82" edge="1">
          <mxGeometry relative="1" as="geometry">
            <mxPoint x="454" y="200" as="targetPoint" />
          </mxGeometry>
        </mxCell>
        <mxCell id="q5o3RwCFdbamAJQa6zpr-61" value="" style="sketch=0;points=[[0,0,0],[0.25,0,0],[0.5,0,0],[0.75,0,0],[1,0,0],[0,1,0],[0.25,1,0],[0.5,1,0],[0.75,1,0],[1,1,0],[0,0.25,0],[0,0.5,0],[0,0.75,0],[1,0.25,0],[1,0.5,0],[1,0.75,0]];outlineConnect=0;fontColor=#232F3E;gradientColor=#F78E04;gradientDirection=north;fillColor=#D05C17;strokeColor=#ffffff;dashed=0;verticalLabelPosition=bottom;verticalAlign=top;align=center;html=1;fontSize=12;fontStyle=0;aspect=fixed;shape=mxgraph.aws4.resourceIcon;resIcon=mxgraph.aws4.app_runner;" parent="1" vertex="1">
          <mxGeometry x="344" y="181" width="38" height="38" as="geometry" />
        </mxCell>
        <mxCell id="q5o3RwCFdbamAJQa6zpr-62" value="&lt;font style=&quot;font-size: 9px;&quot;&gt;Secret payload&lt;/font&gt;" style="text;html=1;strokeColor=none;fillColor=none;align=center;verticalAlign=middle;whiteSpace=wrap;rounded=0;" parent="1" vertex="1">
          <mxGeometry x="244" y="175" width="90" height="30" as="geometry" />
        </mxCell>
        <mxCell id="q5o3RwCFdbamAJQa6zpr-63" value="" style="group" parent="1" vertex="1" connectable="0">
          <mxGeometry x="274" y="195" width="30" height="48.05000000000001" as="geometry" />
        </mxCell>
        <mxCell id="q5o3RwCFdbamAJQa6zpr-64" value="&lt;b id=&quot;docs-internal-guid-4c230aec-7fff-2b1c-62a4-25517e6297ba&quot; style=&quot;font-weight: normal ; font-size: 7px&quot;&gt;&lt;p style=&quot;line-height: 1.2 ; text-align: center ; margin-top: 0pt ; margin-bottom: 0pt ; font-size: 7px&quot; dir=&quot;ltr&quot;&gt;&lt;br&gt;&lt;/p&gt;&lt;p style=&quot;line-height: 1.2 ; text-align: center ; margin-top: 0pt ; margin-bottom: 0pt ; font-size: 7px&quot; dir=&quot;ltr&quot;&gt;&lt;span style=&quot;font-size: 7px ; font-family: &amp;quot;inter&amp;quot; , sans-serif ; color: rgb(0 , 0 , 0) ; background-color: transparent ; font-weight: 400 ; font-style: normal ; font-variant: normal ; text-decoration: none ; vertical-align: baseline&quot;&gt;HTTPS&lt;/span&gt;&lt;/p&gt;&lt;p style=&quot;line-height: 1.2 ; text-align: center ; margin-top: 0pt ; margin-bottom: 0pt ; font-size: 7px&quot; dir=&quot;ltr&quot;&gt;&lt;br&gt;&lt;/p&gt;&lt;/b&gt;" style="text;whiteSpace=wrap;html=1;fontSize=7;fillColor=none;strokeColor=none;gradientColor=#ffffff;" parent="q5o3RwCFdbamAJQa6zpr-63" vertex="1">
          <mxGeometry width="30" height="30" as="geometry" />
        </mxCell>
        <mxCell id="q5o3RwCFdbamAJQa6zpr-65" value="&lt;p style=&quot;color: rgb(0, 0, 0); font-family: Helvetica; font-size: 8px; font-style: normal; font-variant-ligatures: normal; font-variant-caps: normal; font-weight: 400; letter-spacing: normal; orphans: 2; text-align: center; text-indent: 0px; text-transform: none; widows: 2; word-spacing: 0px; -webkit-text-stroke-width: 0px; background-color: rgb(248, 249, 250); text-decoration-thickness: initial; text-decoration-style: initial; text-decoration-color: initial; line-height: 1.2; margin-top: 0pt; margin-bottom: 0pt;&quot; dir=&quot;ltr&quot;&gt;&lt;/p&gt;" style="sketch=0;aspect=fixed;pointerEvents=1;shadow=0;dashed=0;html=1;strokeColor=#36393d;labelPosition=center;verticalLabelPosition=bottom;verticalAlign=top;align=center;fillColor=#eeeeee;shape=mxgraph.mscae.enterprise.lock;fontSize=9;" parent="q5o3RwCFdbamAJQa6zpr-63" vertex="1">
          <mxGeometry x="7.960000000000008" y="30" width="14.08" height="18.05" as="geometry" />
        </mxCell>
        <mxCell id="q5o3RwCFdbamAJQa6zpr-69" value="Customer Env" style="text;html=1;align=center;verticalAlign=middle;resizable=0;points=[];autosize=1;fontSize=12;fontColor=#000000;" parent="1" vertex="1">
          <mxGeometry x="619" y="95" width="100" height="30" as="geometry" />
        </mxCell>
        <mxCell id="q5o3RwCFdbamAJQa6zpr-71" style="edgeStyle=orthogonalEdgeStyle;rounded=0;orthogonalLoop=1;jettySize=auto;html=1;fontSize=8;exitX=1;exitY=0.5;exitDx=0;exitDy=0;" parent="1" source="q5o3RwCFdbamAJQa6zpr-82" target="q5o3RwCFdbamAJQa6zpr-79" edge="1">
          <mxGeometry relative="1" as="geometry">
            <mxPoint x="655" y="200.28571428571422" as="sourcePoint" />
          </mxGeometry>
        </mxCell>
        <mxCell id="q5o3RwCFdbamAJQa6zpr-73" value="" style="endArrow=none;dashed=1;html=1;rounded=0;fontSize=12;fillColor=#eeeeee;strokeColor=#36393d;exitX=0.5;exitY=0.005;exitDx=0;exitDy=0;exitPerimeter=0;" parent="1" edge="1">
          <mxGeometry width="50" height="50" relative="1" as="geometry">
            <mxPoint x="493.1399999999999" y="168.00025000000005" as="sourcePoint" />
            <mxPoint x="493" y="70" as="targetPoint" />
          </mxGeometry>
        </mxCell>
        <mxCell id="q5o3RwCFdbamAJQa6zpr-74" value="" style="endArrow=none;dashed=1;html=1;rounded=0;fontSize=12;fillColor=#eeeeee;strokeColor=#36393d;entryX=0.496;entryY=0.967;entryDx=0;entryDy=0;entryPerimeter=0;" parent="1" edge="1">
          <mxGeometry width="50" height="50" relative="1" as="geometry">
            <mxPoint x="493" y="330" as="sourcePoint" />
            <mxPoint x="492.77" y="284" as="targetPoint" />
          </mxGeometry>
        </mxCell>
        <mxCell id="q5o3RwCFdbamAJQa6zpr-75" value="&lt;font style=&quot;font-size: 9px;&quot;&gt;Create secret action payload&lt;/font&gt;" style="text;html=1;strokeColor=none;fillColor=none;align=center;verticalAlign=middle;whiteSpace=wrap;rounded=0;" parent="1" vertex="1">
          <mxGeometry x="453.5" y="168" width="90" height="30" as="geometry" />
        </mxCell>
        <mxCell id="q5o3RwCFdbamAJQa6zpr-76" value="&lt;font style=&quot;font-size: 6px;&quot;&gt;Cloudfront&lt;/font&gt;" style="text;html=1;strokeColor=none;fillColor=#FFFFFF;align=center;verticalAlign=middle;whiteSpace=wrap;rounded=0;" parent="1" vertex="1">
          <mxGeometry x="199.37" y="166.75" width="30" height="8.5" as="geometry" />
        </mxCell>
        <mxCell id="q5o3RwCFdbamAJQa6zpr-77" value="&lt;font style=&quot;font-size: 6px;&quot;&gt;AppRunner&lt;/font&gt;" style="text;html=1;strokeColor=none;fillColor=#FFFFFF;align=center;verticalAlign=middle;whiteSpace=wrap;rounded=0;" parent="1" vertex="1">
          <mxGeometry x="347.5" y="166.75" width="31" height="6.5" as="geometry" />
        </mxCell>
        <mxCell id="q5o3RwCFdbamAJQa6zpr-79" value="" style="sketch=0;outlineConnect=0;fontColor=#232F3E;gradientColor=none;strokeColor=#ffffff;fillColor=#232F3E;dashed=0;verticalLabelPosition=middle;verticalAlign=bottom;align=center;html=1;whiteSpace=wrap;fontSize=10;fontStyle=1;spacing=3;shape=mxgraph.aws4.productIcon;prIcon=mxgraph.aws4.secrets_manager;movable=1;resizable=1;rotatable=1;deletable=1;editable=1;connectable=1;" parent="1" vertex="1">
          <mxGeometry x="649" y="180.5" width="40" height="39" as="geometry" />
        </mxCell>
        <mxCell id="q5o3RwCFdbamAJQa6zpr-80" value="&lt;font style=&quot;font-size: 6px;&quot;&gt;Secrets Manager&lt;/font&gt;" style="text;html=1;strokeColor=none;fillColor=#FFFFFF;align=center;verticalAlign=middle;whiteSpace=wrap;rounded=0;" parent="1" vertex="1">
          <mxGeometry x="644" y="166.75" width="50" height="15" as="geometry" />
        </mxCell>
        <mxCell id="q5o3RwCFdbamAJQa6zpr-82" value="" style="shape=image;verticalLabelPosition=bottom;labelBackgroundColor=default;verticalAlign=top;aspect=fixed;imageAspect=0;image=data:image/png,iVBORw0KGgoAAAANSUhEUgAAAgAAAAIACAYAAAD0eNT6AAAABmJLR0QA/wD/AP+gvaeTAAAgAElEQVR4nOzdeXgV9fn//9c9kwUSxB1occFdi4o2QHJOIgZF5CyJWntsrUoxQVpbrUur1W7mY1vXfuraqjFB1NpaY2slOSdoVaKQkwTEXdzrggvuSkkgyZm5f3+Av49f2bLMzD1zzv24rl69LivzfhZC5s6cmfcASimllFJKKaWUUkoppZRSSimllFJKKaWUUkoppZRSSimllFJKKaWUUkoppZRSSimllFJKKaWUUkoppZRSSimllFJKKaWUUkoppZRSSimllFJKKaWUUkoppVQuIukApZS3OktPGd2fP9r88j/b6dOPuic+39Qn1aSU8p4OAEoFWDpUuxOAPQGeQITdmLCrARoDxlgm7ArmnRlUQMCOAAoBFG3lcAzgMxB6mdFjAGsY+BCED5nxIQEfMfF7BmMVGeYbH2834s1o6w29nvwfVUo5TgcApXzu8ZJ5+Zmi/v3sjDGRiCYy7IlEtD8YEwCMFkxjAO+B8DoYK5l5JTGey8/Pe37ykvr3BLuUUgOgA4BSPnJPImGOf2f0QSZoCjOmgjAV4IMBFEi3DdInICwjG8uIsKzXtJdNW3Lbh9JRSqn/owOAUoLuSSTM3d4eXUKE6QSezqByAKOku9zAwH8I/CjBeCRD9iMV7fPflW5SKpfpAKCUx5ZNO313K2PGwRwBYRqA7aWbJBDwEgOPGEDS4jWPhDua1kk3KZVLdABQymUMUDp8xmQDdjUBcQYOk27yHUY3Ef5tE7cwFzSXp2/+QDpJqWynA4BSLllWfsZEizkB8CkA9pXuCRAbhA6y0ZRXaN41ua3+I+kgpbKRDgBKOSgdmj2eqGAOmL8Hwjeke7JALwGtAN213eefL9S9CpRyjg4ASg0To87oLHvrKDJpHjNOAJAn3ZSlPmVwUx6Z109tv/V56Rilgk4HAKWGqLN07lgY/CMmzAXwdemeHMIAHiHQzW+N//y+k5qaLOkgpYJIBwClBqmr4oz9bdv6MWCcAfBI6Z6cxngdhFvWF1i3TG9b8Jl0jlJBogOAUgPUWV4z3Wa6iIBjoH93fIWAzxiot4iv0/0FlBoY/Sam1DZ0VtRU2Db+h0BHSbeobepj8AJw5tJwxx3vSMco5Wc6ACi1BenQGccaZF/CQEi6RQ3aeoDrLcKVekVAqc3TAUCpr+ismFti2/ZV+hN/NqB1AF+f32tePnlF/efSNUr5iQ4ASm20bNrpu2cy9CsCzQVgSPcoR30C4KpPty+6Vl9hrNQGOgConPf0oacVd2+X/ytiOg9AoXSPctXLIL4g1D5/oXSIUtJ0AFA5raOitgo2rgcwQbpFeYlbjDzjJ6WPNbwuXaKUFB0AVE5qD8/bx4B1PYCodIuSQusAXPXp9iMv148FVC7SAUDllHsSCXOPt0efx0SX6iY+aqMXyOB5ZUvnL5UOUcpLOgConNEenrePCWs+A9OkW5TvMINvLV7bf/6kZ+7slo5Rygs6AKisd08iYe727nbnE9OlAEZI9yg/4xeJjNPL2hs6pUuUcpsOACqrdZbO3Y1N/AXgI6VbVGBYAF25vmC3S6a31WWkY5Ryiw4AKmt1hucex+BGADtLt6gg4uV5Br47Zen8/0iXKOUGHQBU1llcOWfEiD7jSoDOhn6Nq+FZQ8APytKNd0uHKOU0/eaoskpH2ZwJMMx/AjhcukVlDyb+0/af/ff8ic839Um3KOUUHQBU1kiHTj+SiO4BaIx0i8pChPZ8w0xMXlL/nnSKUk7Q/c5VVugMz51HZPxbT/7KNYzyfst6vLN8bpl0ilJO0CsAKtBSkbMLd/x8XSPAp0i3qJzRC/APQ+n5C6RDlBoOHQBUYC2pOHPHPLv/Pn3ET8ng68vS888lgKVLlBoKHQBUIC2vqNk7YyMJ0IHSLSp3EaFpXb41e3rbgvXSLUoNlg4AKnA6y+eWMfNCALtKtyjF4Ed6C+wTp7ct+Ey6RanB0AFABUpHxdxK2LwQwHbSLUp9gYHnC0zzGH1CQAWJPgWgAiMdOiMOm1uhJ3/lMwRMzFjW4mXTTt9dukWpgdIrACoQOsO132XgDgD50i1KbcWbzJgR7mh8VTpEqW3RKwDK99LlNbUM3AU9+Sv/25MIjy4trzlAOkSpbdErAMrXOsprvw/GfOiwqgKF3rFhHFmern9NukSpLdEBQPlWZ3jutxn8NwB50i1KDcEqI4+OLH2s4XXpEKU2RwcA5Usd5XO/Bea/Q0/+KtjetIEjy9ONb0qHKPVVOgAo3+moqK2CjX9AP/NX2eEFZlSEOxo/kQ5R6sv0c1XlK+lQ7VRY+Bv05K+yx0FEaH360NOKpUOU+jIdAJRvpEO1+xJxMwj6jVJlm6k9o/LvXlxZpx9pKd/QAUD5wuNHzPsaAQ/q63xV9qL4iN63b5CuUOoLOgAocYsrfzSq37KSIOwl3aKUq4h/2FFee550hlKADgBKGAM0sr93PoDDpVuU8gTj6q5wbUw6QykdAJSoznDtpcxISHco5SHTBv66rPyMidIhKrfpY4BKzMaNfu6Bfh2q3PTy+gKrVF8jrKToHalKRHv4jMOY7QUgPfk7qB/AqwS8xOC3iGmVDXqH2P6Q8oxPLdv4LC+z/rO+gmIbAPL711j9+aNNw+b8AqNvlNVvjCITuzB4DIPGEGEvME9gYC8ABwIoFP1/l332H9GfN5+BEwlg6RiVe/Sbr/JcZ+kpo9kc8QSAfaRbAmw9gMfBWM7A44D5REEfXpu8or7fjcUeL5mX31fQd6BBeZMY9mEgYxKYDwOwixvr5RTC+aH2xmukM1Tu0QFAea4jXHs3gO9IdwSMBXAXYPyb2VrcW8hd09sWrJeO6iibM4FN42iDcTSDjgIwVropgPpt8JHl6fkd0iEqt+gAoDyVDtX+gAg3S3cERD8DKSLc12/YqWlLbvtQOmhrGKCu0rmHcB4fDRvHgHAU9GODgVplZPoPL112x8fSISp36ACgPNMerj3YAC0DeKR0i68xVoJwB1m0oKyr4X3pnKFaXDlnh8Jeo5oICYBmQe852jqi+0LtDd+SzlC5QwcA5Yl0KDGSaPQKAAdJt/jURwzcxTAWlKdvfUo6xmnp0OzxBhV8l4HvAfxN6R6/ImB2WbrxTukOlRt0AFCe6AjV/hEE3QFtU28R4495featk1fU90jHeCEdqj0chPMIOBl6VeCrPreBSfr6YOUFHQCU67rK5x5hM7dBN576speZceX2a9b8ZeLzTX3SMRK6ps3dy87Y5wJUA2CUdI9/0KNl6d2OItTZ0iUqu+kAoFy1uPJHowr7ep8mYG/pFp94DkS/K2vfrUm/wW+wpOLMHfO490wwnQd9rHAj+lEo3XCTdIXKbjoAKFd1hGv/DOBM6Q4f+BTgS9YX7HHT9La6jHSMH23cH+ICMM7TV0Ljc+b+ieGOO96RDlHZSwcA5Zr2cE3IAC1Fbl/6twHM7zftX/j9MT6/WDZlzji7IO9KZj4NOfw9ioB/laUbT5DuUNkrZ/9yKXctrqzLG9m3ajkDh0m3CFpmwzirPH3rcumQIOqsqKlgpj+Bcah0ixQCf7ssPf8f0h0qO+XyT2bKRYW9b52Vwyf/XhDOL0vvHtKT/9CVLZ2/NH+9OZkJlwDIyRslGXTt04eelusfhyiX6BUA5bil5TVfN5leADBausVrDDxvWPS9sq6GZ6Rbskln6dxDYfLtOTpU/i6Ubvy1dITKPnoFQDnOZOMq5N7Jn8G4Ebxmip78nVfW1fDMJ9sXlQF0A3LvzXk/65o2dy/pCJV99AqAclRXec1km2kZcutr630iqilrb0hJh+SCzvDc4wBewMAO0i2e0W2ClQv0CoBylG3T1citk//TZp49RU/+3ilLN9xPhlEK4AXpFs8wn9BRMbdSOkNlFx0AlGM6KmqrQKiU7vAKA0mL+Iipj922Srol15QuvfXl/F4zxEBSusUzNl/OuTVcK5fpAKAcsbiyLg8WrpDu8A5f//b4NcdVtM//r3RJrpq8ov7zt8evOY7B9dItHinrCNUeJx2hsodOk8oRHeW13wdjgXSHByyAzg+lG66XDlH/pyNc+3Mg+wdQAl5aV7D7wbqbpHKCXgFQw3ZPImES42LpDg/0M3NCT/7+E0o3XkmMc5HlTwgwcEBh71vfk+5Q2UEHADVsu709+jsMHCDd4TKLgNnhjvn3SYeozSvraLyOQD9Elg8BRPTrexIJU7pDBZ8OAGpYGHUGAb+U7nBZhkDfLUs33i0dorauLN1Qz4SfSHe4bN/d393uROkIFXw6AKhh6Qq//S0QviHd4aIMiE8pSzfcKx2iBibc3njjxu2DsxfTL/SJADVcOgCoYWHwT6UbXGQx0+xQ+/x7pEPU4ITbGy/duGtgtprUWVEbl45QwaYDgBqy9nBNCECZdIdrCBeEOxr+Jp2hhqYs3XAOEZqkO1xjUzYP38oDedIBKrgM0DnSDa5h3B5KN14jneGkysrKvMLCwl1N09yFiAoAFAIoAgDbtteapvlxfn7+J/fdd98nyIIb6QjgxfmFNSP6ew/IzlcK85GdFXNLypY2rJAuUcGknyGpIUmHZo8nyn8dQL50i+MI7Z+OLjo62npDr3TKUEQikd1M05zCzAcR0UQABzHzngB2GuAhGMA7RPQyM7+y8b+f7O/vX/bggw92u1fujvZw7Z4GeBlAY6RbnMe3hdLza6QrVDDpAKCGJF1eczkxXSTd4YI3+k176rQlt30oHTJQ1dXVY23bPpaZjwRwJIB9XFoqA+ApIkoz84Pd3d0Pt7W1rXdpLUe1h2unGcC/ARRItzhsfb9p7xGkr1flHzoAqEFbXFmXN6J/1Sowxkm3OGwtWVQehNf5VlVV7WLb9rcAnASgEoDEc+FrASwCcH9RUdG/mpqa1go0DFhnqPYcJlwr3eE0Jvwi3N54uXSHCh4dANSgdYbnHsfgf0l3OI2A2WXpxjulO7YmGo1OI6KzARwPf93DswbA3wzDqG9ubn5COmZzGKDOcO2/AFRLtziK8XpZR+M+lAX3bShv6QCgBi0drv0XAVn1UhIC/lWWbjxBumNzSkpK8seNG3cagJ8AmCTdsy3MvNw0zcuam5vvh89OSo9Xztulv896GsDXpVscZdD00NKGNukMFSw6AKhB6SydO5ZNXoWsuvmPP7BRcEh5+uYPpEu+rK6uzli+fPmJAC4DsK90zxA8R0RXjxw58q6mpiZLOuYL6dDpRxIZD0PmYxNXMHBnON04W7pDBYvuA6AGx+DTkFUnf7ABqvHbyT8ajc5avnz5UwDuQTBP/gBwMDPfvm7duuWxWCwsHfOFcMdtjwKcVfcCEOjbj5fM2166QwWLDgBqUGzCd6QbnMTgW0vTjUnpji9UV1ePjcfjdxBRK4BDpHucwMyHA1gaj8fviEajvrhxtGht/yVgvC7d4Rwe2Tci823pChUsOgCoAeuaNncvAkqkOxz0Rm/BCN/sphaNRudalvUCM58m3eICYubTiOiFaDQq/jrbSc/c2c0wzpTucBTTSdIJKlj0HgA1YB3h2p8DuEK6wzHEx4Xa5y+UzohEIqOJqJ6IsurqyjY0ZTKZHz7wwAOfSEZ0hGvvBHCqZIODMjbyx/vt4yzlX3oFQA0YA9l0iTHlh5N/LBYrMQzjyRw7+QNAIi8v78l4PD5VMqLftM8n4DPJBgflmcgcLx2hgkMHADUgWXb5v58s61zpiGg0ehqAdgB7S7cI2YOZ22Kx2HelAqYtue1DBrJmEx0G68cAasB0AFADYvUjimz5yIhxS1nXglckE+Lx+DlEdDs2vJAnl40E8NdYLHZFXV2dyPej0Z+vuZaB/0is7YIjF1fO2UE6QgWDDgBqYIgj0gkOWWtmrN9LLV5ZWZkXi8XqmflaZMtANXwE4OfLly+/VWIImPh8Ux8R/8brdV2SN6LfmCkdoYJBBwC1TYsr54wgRqV0h0Oum7p8wWqJhevq6ozi4uLbAJwhsX4A1CxfvvyuyspKz7c4Lmvf428A+XIL48EiGDHpBhUMOgCobRrZZ0wDoVi6Y9gY3f2mfZ3E0nV1dcayZcsakD13nLvlu6NGjbo9kUh4uksfoc4m2Jd5uaZbmDnCkPk4RQWLfpGobWKmWdINjiC+Weq1qcuXL7+RiE6XWDtomPl73d3dN3q9bml6j/sIeMnrdV2wa0do1WTpCOV/OgCobSLCdOkGB/Tlm3n/K7FwPB6/EEB2bTrjMiL6YSwW83STJkKdbRNf7eWabiHKmo/slIt0AFBb9XjJvO05K7akpabJS+rf83rVaDQ6i5mz4tKygKtisdi3vFywYH3eHQDe8nJNlxwpHaD8TwcAtVWZEXY5suCtaUTw/JJyLBY7mIjuQRb8/gkxANwZi8UO9mrBySvq+wHc6tV6LjpicWWd5zdTqmDRAUBtFTNPk25wwIqy9oZOLxesrKwcAeCvALbzct0sVATgH9XV1Z79PjL33wbAN68vHqLtCntXfVM6QvmbDgBqG/gI6YLhYqbbvF6zuLj4KmTFRye+sL9lWX/2arFwxx3vANzq1XpuIQPl0g3K33QAUFv0eMm8fICCvv1vL8B/83LBqqqqmQDO8nLNHHBqNBr1bJtbgtHg1VpuIeYp0g3K33QAUFtkjcx8AwHfqpbBzeGORs/eOJdIJEbZtj0fusuf44joT9XV1WO9WGtdwW5JAO97sZZbGKQDgNoqHQDUFllW4H/6B5ju8XK5np6eSwCM93LNHLKLbdt/8mKh6W11GQbf78VaLtqna+rsnaUjlH/pAKC2iIDDpRuGaX1vYaFnn+VGIpFvADjHq/VyETOfGI/Ho94sRvd5so57iPML9EZAtUU6AKgtIw70Nw8GHpje9ue1Xq1nGMZ1APK9Wi9XMfO1kUjE9Y+mCvrMhwF86vY6rmIcKp2g/EsHALVZDBBAgf7mQYQWr9aqqqo6EsAMr9bLcfuZpun6lZYNewJQyu113MXfkC5Q/qUDgNqs5dNO3w3AKOmO4bDIfNCrtWzbrvNqLQUw80WxWGxHt9chYJHba7iJwQdKNyj/0gFAbZbVRwdINwzTCxVL6z3Z0jUSiZQDuve6x3YEcK7bi2TIfsTtNdxEIL0CoLZIBwC1WWTQ/tINw0FED3i1lmEYF3u1lvp/nDtjxozt3Vygon3+uwBecXMNNzGww9Lymq9Ldyh/0gFAbRaDgn3pkNHmxTJVVVV7AMiO1yUHz+jCwsK5HqzT5sEarjFsc4J0g/InHQDUZhHsIF8BYAt5HV4sZNv2D6Av+5F0bklJibtPXhA/6urxXWdPkC5Q/qQDgNosBu0l3TAMr5Snb/7A7UU2nnhq3F5HbdVuY8eOdXdfAMt4wtXju8wA7SHdoPxJBwC1eRzg3ewYnvz0P3bs2KMBjPNiLbVlRDTbzeOvH7HbKwCtc3MNVxk8QTpB+ZMOAGoTSyrO3BGEYumOoSLgSU/WITrBi3XUNsUjkciubh1847bAz7t1fLcxY3fpBuVPOgCoTRSgN9CXDG3YT7m9Rl1dnQGgyu111IAUmKZ5vJsLENPTbh7fXezacKSCTQcAtQlmI7iX/wG2zBHPuL3I8uXLywB8ze111MDYtu3uMEb2SleP7yamXaQTlD/pAKA2weAgPzf8zhFLb3J9/3ZmPsrtNdTAEdHRiURipHsLGG+4dmy3EfSNgGqzdABQm2LsJJ0wdPSaRwsd4dE6amCK1q5dG3Lr4ER4061je2B0KnK26y9PUsGjA4DanNHSAUNFYNcHgEQiYRJRqdvrqMExDKPCrWNTX98bbh3bCzt9sm4H6QblPzoAqE0wcWC/WTC5PwCsXbv2UACubkGrhiTs1oFLl93xMYD/unV8t1EhiqQblP/oAKA2QSDX37LmFrbxtttrmKZ5iNtrqMEjosNdXmK1y8d3jd2HEdINyn90AFCbYA7uT7cGuf9NmpmD/qbErMTMY0444QQXb3jjz9w7ttss926QVIGlA4DaBBEC+xEALMOLn9KC/aKkLJbJZA5y69gMcv3pEvcYOgCoTegAoDYV4CsAmTz7Iw+W0SsAPsXMe7p1bGIK7BUAMrlAukH5jw4AalMc3G2A8zK9az1YJsgbJWU1Znbt3QxMdmAHANtmW7pB+Y8OAGpTBJJOGKp1I/frcfP4lZWVedAnAHyLiMa6dmwYvW4d223ERka6QfmPDgBqUwyWThii3ultda5+oysoKNgJCO6AlO2Y2bXhjAiWW8d2G5MR1L/TykU6AKhNBfcKgOvfoE3T1H3V/c21z7qZg3sZncxMYIcX5R4dAFQ2cf3rOS8vT5+n9rd8tw5MTIE9iRqg9dINyn90AFCbCu5HAK5/PWcymaD+3qhhYgruFQAjwLsYKvfoAKA2wRTYASCPXf58noiC+nuTK1y7CZSIAvtCnXXEOgCoTegAoLKJ0V5eM0o6QonqduvAzBzYry3L1AFAbUoHALU566QDhiovY7j6iJ5t24H9vckRa9w6MIGDuj9G//S2BXoPgNqEDgBqE0QI7IYnlunumwxHjhzpxU6DaoiYeZVrxwYFdQD4UDpA+ZMOAGoTzMEdAAzbvZ3gAGDSpEmfwoPHDdWQufY2SEZgPwJ4TzpA+ZMOAGoTBAT3pScGdnPz8HV1dTaAT9xcQw0dM7/l1rEJNMatY7uK8a50gvInHQDUpgJ8BYDY2N2DZQL7Xvgs1/fBBx+84uLxXdtm2E1MrFcA1GbpAKA2FeB7AEA8wfUliF52ew01JC+tWLGi340DL66sywOwsxvHdhvB0AFAbZYOAGoThOC+9pSBb7i+BvNKt9dQg0dEz7p17Pz+t8YgqN8viV+XTlD+FMwvaOUqJg7yne7fcHszIGZ+0c3jqyHrcOvAhu3eWwZdZ+FV6QTlTzoAqE0RvSmdMAyj0+HaPdxcwDCM5908vhqyJW4dmAzay61ju42YdABQm6UDgNqEbQf7kiExprp5/JEjRz4H4HM311CD9unkyZNd+wgAzPu6dmx3rSnranhfOkL5kw4AahPvjF/zNgBXbqbyAgEhN4/f1NRkEVHazTXUoP174yOarmDwPm4d22VuPhWhAk4HALWJk5qaLACuPU/tOnJ3ANjItcvNakia3Tw4gQI6APAz0gXKv3QAUJtHFOSPAUo6S08Z7fIabS4fXw1cpqCgoNXlNYL6EcCT0gHKv3QAUJvHgb4PIN82Co92c4HJkyd3QbdY9Yu2++6772O3Dr5xmHT1xlLX2PSEdILyLx0A1GYR03+kG4aFMMvNw2/8vPk+N9dQA0NEC9w8PtOIQ+Dyo6UusYnXu3djpAo8HQDUZhFxoL9xEIwYo87tr+97XT6+2rbPicjVQYwMTHLz+G4h4JWyrrtcez2yCj4dANRmsUWPSzcMD49fVv52uZsrFBUVPQZ9L4C0u5ubm3vcXICBw9w8vluYaal0g/I3HQDUZpV1NbwPCvbJzbb5JDeP37ThaYlGN9dQW8fMt3mwTCCvAMBgfVJFbZUOAGrLGMG+gYiQeLxkXr6bS5im+WcEeM+EICOil1KpVJfr61hUDeJTwbgdCM6rdW029QqA2iodANTWBHsAAMb2j7Cr3Fxg4cKF78LlZ9DV5jFzgxfrlHU1vB9qn39XqKNxTijdOD7P4H0I9AMiNAHw52fshNXl6frXpDOUv+kAoLaMKPDPEDPzDzxY4zq311Cb6Gfmv0gsPGXp/P+UpRvqy9obT/p0+6IxRHwUE18BYAUA13YjHBSmh6UTlP8F8dEW5ZGOsjkTYJhB3g8AAGwb5v5u/zQUi8UeAuDq3gPq/3FvMplMSEd81eOV83bp77ePho1jQHwMpPYPID411D7/LpG1VWDkSQco/wp1LnijI1y7CsDu0i3DYBiwzgfwY3cXMS62bbsLOlR7gohulm7YnMlt9R8B+PvG/2B5Rc3elm3MAPEMMI5hYAcPMmybC/7twToq4PSbldqqjlDtAhC+L90xTOvNfmuvqcsXuPpUQzweb2bmuJtrKADAa8lkcj8ALB0yGPckEuYe721/GNs8A0QzwHwkAOdvUmV0hToayxw/rso6egVAbRURHmYEfgAYYeWbZwH4lZuLMPOFAGYCKHBzHYWbELCTP/D/v2Rrxcb/XLmk4swd8+3eo0B0jM04hoC9HVmI2O33IqgsoVcA1FYtLa/5usn0jnSHA9aSRfu6/W70eDz+W2Z2ddDIcesKCgp2d3Pvfylf/riAGTMA7DiU4zBbh4Y7FgR6J0/lDR0A1DZ1hGteAOhA6Y7hIqJry9obznNzjUgkUmgYxlMAAv/75VO3J5PJOdIRbtvMxwXTMIArSwS8VJZu1K89NSD6GKDaJiZkxSNFzHxme7h2TzfXaG1t7QXwI/jlcbAsQ0S3SDd44aSmJqtsacOKULrxylB7wzFkrd+VQMcD+DOAV7b4C3nDzYdKDYReAVDblA7VHk+UHW++I0JTWXujq1sEA0AsFvs9gF+4vU6OeT6ZTB4sHeEHGx7RNY4homOYcTSAnQDABg4pTzc+J5ynAkIHALVNTx96WnHPqIIPABRJtziBGTPCHY2uXtVIJBLmunXrHmTmo9xcJ8esMwzjwObm5rekQ/zknkTC3O3t0SUwMDXc3nijdI8KDh0A1IB0hGr/AcK3pDsc8kJ+rzlp8op6V/fwj8fj4wE8wcxj3FwnlxDRnS0tLbOlO5TKBnoPgBoQBt0r3eCgg/oLM65fnm9paXmHiOIAut1eK1cw86nxeHyqdIdS2UAHADUgvYUFzQCtk+5wDv2qs2JuidurNDc3LwfwHQAZt9fKEcTM10KvXio1bDoAqAGZ3vbntQx+ULrDQXmwucHt1wUDQDKZTDLzWW6vk0NC0WjUd+8BUCpodABQA2Zk18cAYOCw/kLrd16slUqlboE+HuikP1RVVWXFTalKSdEBQA1YXq/RDGC9dIfDLkiHamd5sVAymbyJiGZDPw4YNiLa3bKsn0h3KBVkOgCoAZu8okFm8AQAACAASURBVP5zAFl1FQAAEfHtjx8x72teLNbS0nIXEZ0MoNeL9bIZEf2iurp6rHSHUkGlA4AaFBu4VbrBeTQmY1n/SEXOLvRitZaWlnsNwwgDeNOL9bLYdpZl/VY6Qqmg0gFADUp5uvExMFZKdziNgdBOa9bVe7Vec3PzE4ZhTAayY5tlQbWxWMz1pzmUykY6AKjBI26UTnADM8/uCNec7dV6zc3NH3V3d88CcBn0voChMgBcKR2hVBDps7Rq0Lqmzt7Zzst/G8AI6RYXWCA6KdTe8E8vF62urj7UsqzbAHzTy3WzyHHJZHKhdIRSQaJXANSglS6742MCZ8XLgTbDBOMv6dAZYS8XXbhw4TOrV68uA3AJgB4v184SV5eUlLi+p4NS2UQHADUkbNOfpBvcwyOJ7PuXltcc4OWqK1as6E8mk5fatj0BGy5r65MCA7f/uHHjfiwdoVSQ6EcAasg6wrVLAFRId7iH3rFhHFmern9NYvV4PL4fM18CIAGgQKIhYD4tKCjY77777vtYOkSpINArAGrImI0sv/mKxxuwFneUzZkgsXpLS8sryWTyVNM09wBwETOvkugIkB37+voukY5QKij0CoAaMgaoM1z7DICDpVtc9qqZZx819bHbRE/AJSUl+ePGjasiohOZOQZge8ken+o3DOPQ5ubmF6VDlPI7vQKghowAJuAq6Q4P7GtljKWdpXP2k4zYeI/AP1taWk4pKioaY9t2lJlvBvAc9B0DX8i3bfsP0hFKBYFeAVDDsriyLm9E36pXAewp3eI6wmq2rZnhjgXPSqd8VSQSGU1EpURUBqAMQAjAjsJZYgzDOLa5uTmb3l6plON0AFDDtmHzHLpeusMjHxFRVVl7Q6d0yDZQJBI5yDCMMgBhAFEAnrzvwCeeKyoqOqypqcmSDlHKr3QAUMP2/MREwefbj36BgL2lWzyynhmzwx2NTdIhA1VXV2esWLEizMwJZj4ZwK7STW4jojNbWlpulu5Qyq90AFCOSIdqZhPR7dIdHrIAOjuUbrhJOmSwEolEwbp1605g5l8DmCjd46IPe3t793vooYc+lw5Ryo90AFCOYNQZneFVjwM4XLrFSwyuL+jNO2vyivp+6ZYhoHg8HmfmSwEcJh3jBiK6uqWl5ULpDqX8SJ8CUI4g1NlE9CvpDq8RaF6m0HrosSNOD+IldW5paWmeMmVKCTOfAeBT6SCnMfNPIpHIPtIdSvmRXgFQjuoIz20D+EjpDgGv2sAJ5enG56RDhioajY4jogUAjpVucRIR/aOlpeXb0h1K+Y1eAVCOYuYLAbB0h4B9DWB5R3ntXOmQoUqlUqunTJkSBfAbZNGfITOfGI1Gp0l3KOU3egVAOa4jPPcvAJ8i3SGFgTsLes0fTl5RH9i3+kWj0dOIqBFAtrxh76kpU6aU1NXV6YZJSm2kVwCU48z+zM8A5Oyd1wSc1j/C6kiH5hwi3TJUqVTqTiI6EcA66RaHHLZs2bLZ0hFK+YleAVCuyLHNgbakH6DLVo3//LcnBXRDmlgsNh1AK4BC6RYHvFtUVHRAU1PTWukQpfxArwAoV5Sl9/gTgGXSHcLyAb5kj3dGL5F+j8BQJZPJxUT0fWTHPQFf7+np0UcCldpIBwDlCkKdbcM4C/qSGjAQYtN8qjNUew4H8KpbS0vL3wH8VrrDIT+LRqPZ/94KpQZABwDlmvL0rcsZ3CDd4RNFTLi2K1zTmg7NHi8dM1jJZLIOwD3SHQ4YSUS/l45Qyg90AFDuYroYwLvSGX7BoGOJ8p/uCNfMCdjVAO7t7Z0H4E3pEAd8LxKJlEtHKCVNBwDlqnBH4ydENAfZ8RmyU3YG6LbOcE1Xe/iMKdIxA7VxT/3TEPyPdcg0zT8gWAOYUo7TvwDKEx3h2lsBBHaTHBdlAP5zfm/ebyavqA/Eo5OxWOwaAOdKdzjg5GQyebd0hFJS9AqA8kTR2r5zAbwm3eFDeQD9pH+E9WI6VDM7CB8LdHd3X4zs+LO8IpFIjJSOUEqKDgDKE5OeubObDJ6D4F8+dgdjHBHd3hWubWsP1x4snbM1bW1t6wGcL93hgD17enrOk45QSorvf9pQ2aUjXHMdQD+R7vC5foBvslHw+/L0zR9Ix2xJPB5PMXNEumOY1mYymf0feOCB96RDlPKaXgFQnsrvzbuYgeelO3wuH6CfGOh/rTNU+z9Ly2u2kw7aHCI6H0C/dMcwjcrLy/uddIRSEvQKgPJcV8UZ+9u2/TgAX57YfOhjAFevL7Cum962YL10zJdlyQ2BNjOXpFKpp6RDlPKSXgFQnitdeuvLBMyT7giQnQFcMaLPfLkzPHfePYmEKR30JZcC+EQ6YpgMIrpGOkIpr+kAoESUpRvvBlOjdEfA7M7gW3Z/Z/Sz6VBtwg9PDCSTyU+Z+QrpDgdUVlVVHS8doZSXdABQYtYXZs4iQC+7Dt5BIFwI1IkPAABQXFx8HYD/SHcMl23b/xuJRLLhrYdKDYgOAErM9LYF62FZJwFYI90SMDYYPybU+eKRyqampj4i+o10hwP2Nk3zx9IRSnnFFz9BqNyWDtUmiPB36NfjgDC4Ppye/wPpjq+gWCy2DMBk6ZBh+swwjP2am5s/kg5Rym16BUCJC3c0NhFnzetm3fZpQUHeL6UjNoMNw/iZdIQDdrBt+3+kI5Tygv7EpXyBAeoM1/4NwHekW/yNfhRKN9wkXbElsVgsCSAq3TFMFoDDksnkc9IhSrlJrwAoXyCAmdeczsDj0i0+9uSq8Z/XS0dsw88AZKQjhskEcK10hFJu0wFA+Ua4o2mdbZgnAnhfusWH2AbOPampyZIO2ZpkMvkCES2Q7nDA0dFodJZ0hFJu0gFA+UrF0vq3YONEAH3SLX5CRHeWpxsfk+4YCMMwLgHQLd0xXET0x5KSknzpDqXcogOA8p1QZ2M7iGZD3xz4hf/mGcZF0hEDtXDhwncB/FG6wwEHjRs37gzpCKXcogOA8qVQe8PfCThbusMXCJdMXlIfqLfVFRUVXQVgtXSHA3577LHH7iQdoZQbdABQvlWWbvwzwP8r3SGKsTJ/vXmjdMZgNTU1rcWG9wQE3U6mafrxsUulhk0HAOVrZen5FxDRHdIdUgyisyevqA/kK3eLiorqAayU7hguIjorGo3uL92hlNN0AFC+RgDnrTfmEvgB6RYBfy9NNzwiHTFUTU1NFjP/QrrDAQUArpSOUMppOgAo35u8or4fVu9JAFZIt3iG0U0WBX5nvVQqdT8RBXaI+QIRHR+LxWZIdyjlJB0AVCCUdd21Zn2BNQOgJ6RbvMAGfl/W1fC2dIdDLgbA0hEO+EMikTClI5Ryig4AKjCmty34rN+0ZoGD/7nyNrz62eiibHiMDgDQ0tKyDECTdIcDJvX09MyRjlDKKToAqECZtuS2D8mmowB+UbrFLUR0TrT1hl7pDicZG/YxCPz/JyK6LBKJjJbuUMoJOgCowCnranifLOMYMF6XbnEaA/eXtTekpDuc1tzc/DoA377EaKCYeYxhGD+X7lDKCToAqEAq62p42zLNSgBvCKc4aX2+wedLR7joUgCfSEc44PxZs2ZNkI5Qarh0AFCBVbG0/i0AbdIdTiHGVVOWzv+PdIdbksnkp0SUDY/TjTBN83LpCKWGSwcAFVidFXNLAMyW7nDIWyO7+66SjnDb2rVrrwfwpnSHA75TVVVVIR2h1HDoAKACiVFnsMV/QpZ8DTPzuZOeuTPwb9Dblra2tvXM/GvpDgeQbdt/AEDSIUoNVVZ881S5pzP8Vi0IpdIdjiB6KNwx/z7pDK9MnTr1LmTHpk6l8Xj8e9IRSg2VTq8qcJZUnLljnt33EoBdpVsc0MdsTgp31GftY42bE4/Hj2bmh6Q7houZVxUXFx/Q1NS0TrpFqcHSKwAqcPLsvt8jO07+AHBNrp38AaClpeVhZm6W7hguItq9p6cn8Fs2q9ykA4AKlHSo9nAA86Q7HEFYTdb6y6QzpNi2fQGAQL7p8CsuOu6443aXjlBqsHQAUIHBAIFwHYCs2I+dbTq/rOuuNdIdUhYtWvQSgFukOxxQlMlkLpWOUGqwdABQgdEVnjuHgCOkOxyyNNTRcLd0hLRMJnMJsmNzoNnRaHSydIRSg6EDgAqEztJTRtvg30t3OMQyDD6LsuMNecPywAMPfAIgGzbVMYjoOuiN1SpAdABQgcDmyN8R8DXpDicwcGPp0vlPS3f4RVFR0fUAXpXucEA4Go1+SzpCqYHSaVX53rLyMyZabD8FIE+6Zfj4g/UF9gHT2xZ8Jl3iJ/F4/NvMnA2vDH7Ntu2Jra2tvnzz4cyZM4vz8/MLAOxoGEaBbdvFhmGMsiyLiWiTjagsy1rLzGsKCgo+b25u7hFIVi7SAUBISUlJ/ooVK7LhDmhXMUCdodpHQKiUbnEGnx5Kz18gXeFDFIvFlgAolw4ZLma+MJVKXe3hknTcccftZlnWPrZtTyCi8UQ0hpnHMPPXiGgMgLEAdhrmOhkAawB8BuBDZn6PiFYR0XsA3rEs620Ab44aNeqNpqYma5hrKQ/oAOCRmTNnjjFNsxRAORFVAChOpVKHS3f5XWd47qkMvlO6wxm8vCy9RxmhzpYu8aN4PD6VmTsR/O9Ln9u2vV9ra+uHTh505syZxQUFBYcCmMTMBzDzPkS0L4C9AIxwcq1h6gXwMoCXALzEzCvz8vKeW7Nmzcq2traMcJv6kqD/RfOtkpKS/DFjxhxBRDEAEQAHffXfYebdW1tb3/a+LhiWltdsZzK9CODr0i0OsJkRCnc0LpMO8bN4PH4XMwd+e11mvjmVSp051F8fiUR2BTCZiCYR0eEADgOwL4J931YPgCcBLCeix23bXp5KpV6WjsplOgA4KBaL7QigGkCcmWcCGL21f5+Za1tbW+d7EhdAHeHa/wVwvnSHI5huDnU0DPmEkCsikchuhmG8BKBIumWYLGY+PJVKPTuQf7m6uvrrlmWVE1EFM5cD+CZy4PszEX3AzI8CeMgwjPbm5ubnpZtySdZ/gbktkUiMXLt27QwiOg3AcQAKBvprmfnu1tbWk92rC67OI07/BlvGUwDypVsc8El+gXnA5Lb6j6RDgiAajV5GRBdLdwwXMz+YSqWO3dz/Fo1G9wQwi4iOAlCB7LjK5YQ3ATxsGEYzgAf1xkN36QAwBHV1dcby5cuPYeYaAHEM8acVZv64tLR0TF2dfib8VelwzcMEOkq6wxHEZ4ba598snREUiURiVE9Pz8vIjsc+48lkMllZWZm33Xbbldm2HQcwAznyE/4wrQewlIha+vv773nggQfekw7KNvoFOAjRaHQcEX2fmecB2NuJY9q2PXXRokXLnThWtugon/sdMGfLLnlPrhq/ZspJelf0oMRisXnIjm2CXwPwHICjAYwSbgkyG8CjzHwHM/+ztbU1Z7fQdpIOAAMQi8WOYOZzsOHzfacvSf86lUr9zuFjBtbjJfOK+gutlQD2lG5xABtER5a2NyyRDgmaRCJh9vT0PAngEOkW5TvrieghZr5j9erV/9LHqYdOB4AtqKurM7q6umJEdBGAsItLLUmlUtNcPH6gdIRrrwDwc+kOhywIpRtPl44IqlgsdiyARdIdytfeJaJbDcOoX7hw4bvSMUGjA8BXVFZWjhg5cuRcIjoPDl3m34Z+Zt5FL2kBnaVz9mPTfBZAoXSLA9bkm+aBk5fU6+eWwxCLxVoBzJLuUL5nEVErM1+XTCYfhr5nY0CyYGtVZ5SUlOSPGzfudGb+DYDxHi6dT0TTAdzv4Zq+xIZ5HbLj5A9mvkRP/sNnGMbPbNueAf1epbbOZOY4gHgsFnuOiK5+7733/qYfD2xdkDeVcERJSUl+JBKZPXbs2BeY+RZ4e/L/wkyBNX2lM1xzIggR6Q5HMFYW9OX9STojGzQ3Nz/PzA3SHSpQDmbm28eNG/dKPB4/p6qqKuh7SrgmpweAWCxWPXbs2OeI6HYA+wimbPZZ4VyRDiVGMugP0h1OIYPPmryiXn/ycEgmk7kEG/agV2ow9mTma5n59Xg8fnEikdCnML4iJ+8BiMViBwH4AzNHpVu+wMz7tra2vibdIaEjXPs7AL+U7nDI3aF0o27u5LBoNHoREV0u3aEC7SMAf+ju7r6ura1tvXSMH+TUFYCqqqpdIpHILcz8rJ9O/gBgGEZOXgVoD8/bB8BPpTsc0mMDF0lHZKOenp5rAbwh3aECbRcAVxQXF78Ui8XmJRIJUzpIWs4MALFYLGFZ1koimgfAd3/wG98dkHMI1nXw15vMhoyYfluebnxTuiMbtbW1rWfmX0h3qKywB4Bburu7n4jH45XSMZKy/iOAWCy2NzPfBP/faPff999/f+dcumu1o7ymGkzZ8vTDq59uX3RwtPWGXumQLEaxWGwJgHLpEJU9iKglk8mcvWjRojekW7zmu5+EnZJIJMy99trrQma+B8CB0j0DUDhq1KiHXnnllZz4CTIVObtw5PrMvwDsLN3iBCI6bfojN78o3ZHt9t9//xcB1CAHfnhRntnfMIx5++23nzF+/Phlb7zxRkY6yCtZ+RHArFmzJnR3dz/CzFcAGCndMwjHSAd4ZcfPuy8CsJ90hxMI+FdZe0NKuiMXJJPJ9MahXiknFRHRb0eNGvVULBY7QjrGK1k3AEQikdnmht3kgri9bk7cCLi0Yt4eAF0o3eEMWkd5dL50RS7Jz8+/AIC+JlY5jpkPAPBoLBa7pbq6ejvpHrdlzQAQiUR2jUajLUR0OzMH9XnPkqqqql2kI9xm2Nb1GOIrlH3oqtLHGl6Xjsgl999//ypmvk66Q2UtAjDPsqznotFoVm9DnRUDwKxZs6YQ0TIAMemWYTIymczR0hFu6iiviRBwnHSHQ95g/vxK6YhcVFxcfBkA3WpZuWkPImqNx+N3zJw5s1g6xg1BHwAoGo2eYxjGUgATpGOcQERZ+zHA8xMTBcR0jXSHUwh0brijaZ10Ry5qampau/G9HUq5iplPy8/PfzwSiRwu3eK0wA4AM2bM2D4ajf4TwLUACqR7HDQTWXqH85rtt7+AgQOkO5zAwINl6YZseYQxkKZOnTofwArpDpUTDjQMoysej9fV1dUF9rz5VYE80UQikX2IaCGAb0i3uMGyrIMfeOCB56U7nLRs2um7W/3GCyBkw6W0PsMwDildeuvL0iG5LhaLTQfwiHSHyikpAKcmk8lPpUOGK3CTzKxZsyqIqANZevIHANM0s+5jACtjXJMlJ38AuEpP/v6QTCYXA1go3aFyShTAU1VVVVOkQ4YrUANAJBI5wzCMRwDsKt3ipmzbFjgdqj0awInSHQ55q2ht3xXSEer/2LZ9PgDdgVF5aQ/bth+LxWK10iHDEZSdACkWi/0BwOUITvOQEdH4ww477I8rV64M/I5Uz09MFPSNKFyILBnamDFnyooFz0p3qP/z6quvfrr//vvvDKBMukXllDwA1QcccMBOkyZN+vfKlStZOmiwfH8FoLKyMi8WizUwc7a8MW4gRnZ3d1dIRzhhzfajzwVwkHSHQ/4d7mj8l3SE2qxLseF1r0p5ipl/0t3dnZoxY8b20i2D5esBoKqqqqi4uPh+Zq6RbvFaNjwOuGzKnHEAfind4ZA+i/hs6Qi1eRtvyLpUukPlJiKaWVhYuDQaje4p3TIYvh0Ajj322J0sy3qYmaPSLRKYOfADgJVvXgNgtHSHQ66uaJ//knSE2rLVq1ffDEBfyKSkHExEHbFYrEQ6ZKB8OQDEYrEdTdN8ALn9md7BkUhkN+mIoeoqn3sEgO9IdzhkVdHavsulI9TWbXyV9s+kO1RO+xqAR6PRaCBe7Oa7ASASiezKzG0AJku3SCOiGdINQ7G4si7PBt+IgO4zsQmicyc9c2e3dIbatmQymQTwgHSHymnFRNQcj8e/LR2yLb4aAGbOnDmGiB4GcKh0i08E8nHAEf2rzgZnyZ8h0UOh9oZ/Smeogdv4WGDgn6BRgVbIzHdHo9G50iFb45sBoKqqapf8/PxHABwi3eIjxwRt28nO0rljwbhEusMhfWwbeuNfwLS2tq5k5gbpDpXzTCKqj8fjZ0mHbIkvTi7V1dXbWZbVyswTpVt8Zpfly5cH6gUUtslXAwjc4zCbQ4z/DXfU601lAbTxRUGfS3eonEfMfL1fhwDxASCRSBRkMpl7oZ/5b5Zt24F5GqCjrLacgFOlOxzy9rrCwsukI9TQtLa2fsjMv5fuUAobh4BoNPpj6ZCvEh0AEomE2dPTcxcC+lm3F4goEL839yQSJhnImhv/CHTe9LY/r5XuUEPHzNcD+I90h1IAiIhuiEajP5AO+TLRAaCnp6eemX1/p6SwcHV19XbSEduy+zvb/YiBw6Q7HEH0UFm64V7pDDU8ra2tvcx8oXSHUhsREd0Ui8W+Lx3yBbEBIBKJ/CIXd/gbgnzLsqZLR2xN19TZOwOkN/4p30mlUv8A8Jh0h1IbEYBbI5FIRDoEEBoAotHoiUT0W4m1g8jvbwe08/KuBrCzdIdDrtEb/7KLbdvnArClO5TaKN8wjHsjkUi5dIjnA8DGbRLvkFg7wHw7AHSV10wGyDeXtIbp7fUFhb+TjlDOam1tfRLAndIdSn1JkWEY91dVVR0oGeHpSXjmzJm7M3MLgCIv180C+8Visb2lI76KUWfYTH9CtgxzxD/VG/+yk2mavwCguzkqP9nZtu1UJBIRe1W6Z9+4E4lEQV5e3j0Axnm1ZhZ5i4h8dyNgZ/lb8wBMle5wyMOh9vn3SEcodyxcuPBdAFdJdyj1FXsZhvHPSCRSKLG4ZwNAd3f3Ncjtl/sMxSdEdFFxcfGBLS0tT0vHfFk6VLsTOGvu48gwW+dJRyh3FRUVXQ3gLekOpb6iwjCMWyQW9mQAiEajJwP4kRdrZYk+ANcXFBTsk0wmr2xqalonHbQJ4ssB7CKd4ZA/hjsWPCsdody18e/RL6U7lNqM78diMc/fZOn6pi2xWOxgZu6Cfu4/EBaABcxc19ra+rZ0zJZ0VswtYZu7AJjSLcNGWE2Z9QeUdd21RjpFeYJisVgnsuejKyd9CmANgP8C6P3q/0hEo5h5JIAdAIz2uC0XZIjomJaWljavFsxz8+CVlZUjmPku6Ml/IB6ybfunixYtekY6ZGsYdUanvepGZMPJHwBA5+rJP6cwgPMALEWW7Fo5CKsBvADgZWZ+CcB/DMN4zzCMtwsLC99vamqyBnqgRCIxsre3d7xlWV8DsDcRHcjMBwCYCGA/5N7vrRPymPnu6urqb268Z8V1rv4hxWKxG5jZly9B8AtmfoKZz1m0aNFS6ZaBSJfX1BJTVrxpjYEloXTjkbThpKBySDQavZuIviPd4aKPmHkpgBXMvCI/P/+JhQsXvu/Fwscff/wO/f39pdhwlWU6gDAAkZvcAqp99erV01esWNHv9kKuDQDRaHQWgJSbawTc5wAuKS4uvnEwk7ekJRVn7phn970EQOyxFQdlmK1v6mf/uWnWrFkTTNN8AcAI6RaHfAbgIWZuM02zrbm5eSV8MtjOnDmz2DTNaYZhxAF8C/ok2DYx8x9TqdRP3V7HlZPzzJkzx+Tl5T0N/YPekhZmPtPPn/NvTrq85kZi8t0brYaCCX8ItzdeIN2h5ESj0cuI6GLpjmFYCaDZMIzW//73v+1tbW0Z6aBtSSQS5rp1645g5u8COBl6L8GWsGEYs5qbmx90cxFXBoBoNLoQQJUbxw64F4noR8lkcrF0yGClQ3MOITKfgMv3jXiCsDp/vXng5BX1+r74HFZdXb2dZVkvI1g/qKwkoibLsu5pbW1dKR0zHDNnzizOz8//DoB5AEqle3zoPcMwDm1ubv7IrQUcHwA2PvL3V6ePG3DrAFzFzJe3trZucnet3zFAXeHaNgamSbc4gZm+F+5o+Jt0h5IXjUbnEtGt0h3bsJqZ/wpgQSqVysqPrKqqqiosy7qQiOLQj42/7P5kMnm8Wwd39De6qqpqF8uyViI7PiN2StK27bMWLVr0hnTIUHWU134fjAXSHU7QG//UlyUSCbOnp2cFgEnSLV+RAbCQmW/r6elZFITL+06oqqqaaNv2JQC+DR0EAADMfEYqlXLlxmtHf4Oj0ehfseFzHQX0APhFKpW6HgE+2XSWnjLaNke8SMDXpFsckCGLSsq6Gnz9qKXyViwWmw7gEemOjd7Hhr1AbkqlUm9Kx0iJxWIHA/gNgIR0iw+sycvLO/j+++9f5fSBHdsJcNasWVHoyf8L7UR0SCqVug4BPvkDgG2OuDRLTv4AcL2e/NVXbbwnZ6FwxnMATisqKtojmUxelMsnfwBIJpPPJZPJk4goBuBV6R5hoy3L+rMbB3bkCkAkEikkomcA7O/E8QKsH8BlxcXFvw3Ko31bs6z8jIkW208CyJduccD7+b3mAXrjn9qcaDS6PxE9C6DAy3WZeblpmpc1Nzffj4D/sOCWysrKEcXFxRcAuBjASOkeKcx8SiqVcvT+OkcGgGg0+isA2fJimKFaaZrmac3NzU9IhzilI1z7CDZs5BF8xKeG2uffJZ2h/CsWi10D4Fwv1mLmRzee+F19zCubVFVVHcjMtzFzrr5U7iPDMA5y8qmAYX8EMHPmzN0BXORAS1AxM9ebpjklm07+6VDt95AtJ39gaVn7fH0yRW3LpQA+dvH4DCBl23ZFKpWq1JP/4DQ3N784cuTICmw43wTuaSoH7GLb9u+dPOCwrwDEYrEmZv62EzFBw8wfE9GpqVRqkXSLk5aW12xnsvECwOOlWxyQMQyeXLp0vq9ep6z8KRaLnQ3gehcO/W/DMC7Kph8SJMVisRIAfwewj3SLx2xmLk2lUo87cbBhXQGIRqPTcvXkD6DTsqzDs+3kDwAG6DdZcvIHGDfoyV8NVHd3900AnnfwkC8COCmZTM7Uk79zksnkCtM0Dwdwt3SLxwwiuqmurs6RG/iHe5DLnYgIGiK6sbi4+MgHH3zQ8ccyU/OeLwAAIABJREFUpHWUzT2IGOdIdzjk/fw+83+kI1RwbHze/ucOHGo1gB8UFRUdnEwmmxw4nvqKhQsX/jeZTJ4M4AJseJV6rpi8bNmy2U4caMgfAUQikeOJ6D4nIgIkA+DcVCr1J+kQt3SU17aCMUu6wwkEOq0s3fAX6Q4VPLFYbBGAY4fwS3sA3GDb9mWtra36mmmPxGKxY7HhasAO0i0eedcwjP2am5t7hnOQIV0BSCQSpmEYvxvOwkHDzB8bhnFMNp/806HaRLac/EFoL0036F3/aqh+hsH9VGkz821EtH8ymbxIT/7eSiaTD2DDa4ffEE7xytdt2z57uAcZ0gDQ09NzKjNPHO7iQUFEzzPz5JaWljbpFrc8XjKviAhXS3c4xDKIf6zb/aqhSiaTzzHzQN8R8Kxt2+WpVKqmpaXlHVfD1BYlk8kXmDkE4CnpFo9cdMIJJ+w8nAMMegBIJBImM/9yOIsGCTN3FBQUHBnkvfwHIlNg/QrAntIdTmDgRr3xTw1XJpO5BMDWNo5aB+Ci1atXl7S2tnZ6lKW2IpVKrc7Pz5/OzI9Kt3hgh/7+/mHdrzLoewCi0ehpAO4YzqIB8s/i4uJTm5qa1kmHOKE9/MMxQP+YPKIdbeIdyMYODNoRwE4AXwSgULrRAbrjn3JMNBq9gIiu+uo/Z+ZHbdv+waJFi16S6FJbF4lECk3TvJeZ49ItLuvp7+/f68EHH/xgKL94UANAXV2dsWzZsmcBfGMoiwUJEd04ZcqUc+rq6mzplsHoLD1ltGWOOMwAHQbYhwE4GDC+DvAYZMeWvlvFzN8Pd8zPlQFVuSyRSBT09PQ8B2C/jf/oEwAXJ5PJW6EfMflaIpEo6O7uvpeIqqRb3MTMl6dSqV8M5dcOagCIRqMnArh3KAsFzNWpVOpC6YiB6Jo6e2fLzD+WiKIAlwHYG7n6Gk1Ce1l74xH62b9yUjQaPZGImgDcUVBQ8NP77rvPzd0ClYMikUihYRj/BBCVbnHRGgATksnkp4P9hXmD/PcvHuwCAfQ/qVSqTjpia9KhOYfAMOMExGxGGQGmnvP0xj/ljlQq9Y+qqqrS5ubm5dItA1VZWZk3YsSIfUzTnMDMEwBMALAXgJ0BgIhGMPMXL9bpBfAxM39CRB9vfOLpFQDPdXd3v7Jxb4RAam1t7U0kEt/u7u5uJaIjpXtcMhrA2diwlfWgDPgnxXg8Xmnb9uLBLhAwv06lUr58vHFpec12eWyczMAPAP6mdI//0A2hdMNPpCuUklBdXb1dJpMpY+YKIqoAUAqg2IFD9wFYCeA5Zn6MiB4M4quKI5HIaMMwFgPI1u+dHxUVFe0x2PvVBjwARKPRfwD41qCzgmPIn6O4qau8ZrLNNA/AyQBGSff4E3+wvsA+YHrbgs+kS5TyysaT2gm2bZ9MRDMAmB4t/TIRPcjMDxQXFz/Y1NTU59G6wzJz5swx+fn5S5C9r62fm0wmGwfzCwY0AFRVVe1hWdZrGPxHBkFxXSqV8uQ1oAPVUXF6KWz6Ff6/9u48vo6q/B/455m5aZulhQpYFJCtLYKyWUo3xItgk5m5N5TlAgoCUkBlccEF8asSkZ+CgqLiQqEFBTdCaUly5zalhQh0hQgKIpCCiCxlX5NmuXOe3x9Ja5e02WbOuXPv8369fFnSm3k+TdPcM2fOeQ6o2FexhoA/N2PlgltMpxBCA/I8z2XmswCkAJQP9AkRexXAHy3Lurmpqangt96m0+l9lVJrAOxmOksEHstms4dgCI9BBzUAcF33RyjeI39v9X3/LBTIs+MVM887zGJ1BQhFvXI1LASsmrZy/ix59i+KWSaTsTs6OjLM/G0AB5vOsx0PA5jX0dFxS0tLS6fpMNuTTqePUkotQ3Fse94CM3/C9/37Bvv6AQcAmUymvL29/TkAu44oWWG6p7Ky0imEKazV087dky1cC+IMSnUV/9ApBWv6rJU3xmZxlhBDkclk7Pb29jPRewMWi6lrZn4RwE8SicS8kfaqj4rneecAGNJ0eRwQ0cKmpqZBn9A74BuN67qfAVB0PdWJ6J9lZWVHLV682OhzYwZozcxzz2PwT9C7mlMMEgELpq+cP9d0DiGi4LruYQBuAjDFdJZhehnAtZWVldcXYjO1VCp1IzOfazpHyPK2be/d0NDw4mBePJhWwGePLE9Bei0IgpTpN/9V0889cPWsufcz+AbIm/9QvWf1BCXTklqUjkwmU+44zlUAHkR83/wBYAKAH7e3t/+zpqam4PbhB0FwEYCHTOcIWSIIgs8O9sU7HACk0+kPATh2xJEKS14pdZrJ3v4M0OqZ534NFj8MxixTOeKMia8/8sFb1pvOIUSYHMeZ1dHR8Q8iuhTFs+h6X8uysq7r3uE4zp6mw2yUy+W6lFKnAXjXdJYwEdHnBvvaHQ4AgiA4c6DXxA0zf2vJkiXLTdW/N3lB1ZpZc//C4GtQhItQtGC05y3+qekYQoSIPM/7OhG1MPNE02EichIRPe667oWmg2yUy+WeBlBQO8BGipkPSKVSMwbz2h3tG6XJkyfPB/C+cGIVhDtzuZyxv+xV0889MKF6lgNF25FKD8J1R61YcJfpGEKEwXGc0ZMnT/49gEtQZDdc/RgNwJ08efJHJ06c2Lxu3bou04Ha2toenjx58kcAFNMR96qtra1xoBdt95stlUpNLbKR6PNBEJxnqvjKGXPnwOI1AH3YVIYiEQSW/SvTIYQIg+d544nobvQ2+ioZzHyyZVmtfQsdjevp6bkIvQc9FYtTk8nkmIFetN0BgFLqpHDzGBUw8xnNzc1G/oJXzzz3DCLUAxhron5RIdx91APznjMdQ4iRSqfTuzLzPQA+bjqLCX03mKscxznHdJa+43S/YTpHiMZVVFRUD/SiHU03FdMA4Ke5XO6vJgqvnjn3Agb/DsWzoMcoYiq6vbui9KTT6V2DILgHQEHcARs0hojmu677HdNBstnszQCK5rwbIhqwH0C/AwDHcQ4HsH/oicxoq6ysvNxE4VUz517KwK9Q/M/1dOlOdFm+6RBCjEQmkykPguAuFG5HPxN+4HneL+vq6kz+rGQAFwLoMZghTMcP9Big3y82ERXLoT/MzOeZaEKxaubc7wC4Snfd4karjmidV5CdxYQYjClTppR1dHTcAWCm6SyFhpkvWrNmzYJkMmlstjSbzf4LwI2m6odsbEVFxXE7esH2RlvHRxDGhAUmpv5Xz5x7GoZxNrMYSNEfRy2KG02YMOEmZi64pjiFgojOqqiouM3kTIBlWZcDKIqTRYloh4/yt/kip1KpPQB8NLJE+ryTSCS0d4pbPeucYxj4HaSff+iILOn5L2LL87yfADjTdI4YOHXt2rU/MVW8sbHxNQDXmKofMm9Hg6ltfiMIgmoUx5vXlQ0NDS/rLLhq+rkHMtNCAKN01i0VAbOs/hex5HneFcz8NdM5YuQSx3GM9WypqKj4ORG9Yqp+iHZrbW3d7kLTbQYARDTg1oEYeJaZf6Gz4Oppp4+DxY0AxuusW0qUNeoF0xmEGCJyXfdaZv6u6SBxQ0TXep5nZD1afX39e8xsbBYiTEopZ3u/t8UAIJPJ2AB2uGggDpj5B7lcTmuHKWWPuR7Fs3OiEHV//IHfvGk6hBCD5TjOaNd1N3b4E0NnMfNtppoFWZb1awCvm6gdsprt/cYWA4D29vYjEP/Wv20bNmz4vc6CK2fMzRAw6BOYxLCUcXE8mhIlIJ1O79rX4e8M01lirhzAHzKZTLnuwo2NjR0Afqu7bgSmz5kzZ+f+fmOLAQAzH6UnT3SY+cqWlpa8rnprjj53X6Ki2TZSyGjVjMyArS2FMM113aODIHgEJdrhLwIHtbe3G1mUx8zXA+g0UTtEiXw+3+/34tZrAOJ+NO0Lr7zyyp90FWOAOM+3ANhJV81Slk9UVZnOIMT2OI4z2vO8KwAsB7CH6TxF5ouu66Z0F/V9fz0R1euuGzZm7ve9fYsBABHFvTnF9a2trdq6OK2ace5pDBytq16pG8X2h0xnEKI/juN8koj+3rfYT9p+h48AzHccZzfdhYMguEF3zQj0O7u/aQBQXV09EcAEbXHC1xEEwTxdxVbOyJQT8Y901ROACvhQ0xmE2FxNTc0hnudliWg5gANM5yly77cs6/u6i+ZyuRUAHtFdN2RT0+l0xdYf3DQASCQScZ/+X6jztD+inS4FsLeuegIgkgGAKAhUU1NzrOd5WcuyHpHOfvow83nV1dUfMVD6NgM1wzQqCIIjtv7gpqkqpdQUovgusmbmW3TVWj3t3D0ZXExHR8YEfcx0AlG6PM87kJlPQe+On/2Z2XSkUpSwbfsaANvd2x6FIAgW2rb9E8R4J5JlWdMB3LfFxzb+gojifHf17LRp01p0FVM2fx3ANtMpInLTH0qev6vpEKIkUHV19UTXdT/ruu5vXNd9hpkfB1AH6fdhWo3rutvd2x6FJUuWPAugVWfNsDHz4Vt/bOMMAAGI8wDg9rq6OqWj0Oppp49j4HM6aoltJHq68ykAt0RZxHXdyUQU+YJDpdTOlmXpvqMYjW0HrwGAdzTn6ADQb7MuInqHmYOtP25ZFiul+j2kpaenp6esrOy9wRS2bXuUUmocM48DMJ6ZdyKiXZh5IjNPJKKJACaidw+6KExXAliisyAzLySibabRY2SbhkoJAEin0/sEQRDbrWzMvEhbLXvMFwGM01VPbI1OQMQDAGY+D8DXo6wBAEQEmUbe1va+JkGwzZhgk0QiMeivZT6/bZuQjZ8b58egJWaK67pH+75/38AvDQcR3Q4gzgu/J2cymar6+vpNA2ULAJjZSKvFkLw8bdq0tToKPTTl/DIAF+moJbaHPnVv8oJI+wEQkbatpEKI4WFmrYcFZbPZZxDv3QDWhg0bDt7iAwCglDKxqjIURJTVNf3fM0adCGBPHbXE9nB5eXf3nIiLdEd8fSHECBFRred5++msycyLddaLwBaP+jcuAozzopZ7dRUi5tN01RLbx+BPR1xCWytpIcSw2cz8JZ0FiUjbI4coMPPkzf879gMApVSLjjr3Ji+oYhTFUcnF4FNrjjxzl6guLo8AhIiN05PJpLbOixUVFasR4xlCIpq0+X9vHABonUYJCxGty+Vyz+uoVd7dlQJYVgUXhjJOlEXWfIWZY/sPXIgSs2tlZaW2Q5fq6+s3AHhYV70IbDkA6Dtm8YOGwowIMz+orRZwsq5aYmAMeFFdm4jkEYAQMcHMJ2ku+YDmeqFh5v02nzGx3nnnnf0Q0+5GzKxlRea9yboEAJn+LyAEVN+eydhRXFtmAISID2Y+oa6ubuuTbSNDRCt01YpA2bhx4/bZ+B+WZVmxPbaSiLRMxYzu+u/BAOQo2gLCwM57Pj/ukEiuzSxrAISICSL64EMPPTRNY737AcS2gUdPT8+mJmcWEcX2BMBEIvFPHXXIYm3fXGLwiCiqZ3/yCECIGGFmbceyNzY2vgbgJV31wmZZ1qZH/hYzf8BkmBHobGho0POXwDhSSx0xNIxITrC0LGtMFNcVQkRDKaX1Jo2Z23TWCxMR/W8AEOMZgGegbRqGpuupI4aEoulgySy7PYSIEyKaqbneOp31wqSUiv8AgIie1VHHdy4eDeAAHbXEkE2Moi0wEckMgBDxMsF13b011iuOGQBm3s1kmOFSSr2qo874N9/9ADY7NlkUFGt0V9dBYV9UZgCEiB8i0vmoNrYDAACbbvotZh5rMslwWZb1mp5Kdmx3SZQCsmjfCC679XG5QogCx8wTddWybTu2jwCw2Wm2FhFVmkwyXEqpN3TUYYpnk6RSweDQu1gSkcwACBEzRLSXrlqdnZ1P66oVgZ02/sICEMsBABG9N/CrRs6KaZfEUkEc/umM8ghAiPhh5g8N/KpwLF26tB1Al656IdtiABDXBje6urW9T1MdMQxEiGINiwwAhIgfbQOAPu9orheWcejr/mshps87dZ3YxkSx7fhUCpixa/jXlBkAIWJI2yOAPm9rrheWxOzZsyuA3gHAKMNhhkUppWkAwEpHHTFcHMU2wMiOGhZCREb3zWxcZwCglEoAMd7eRkRaBi7EkAFAQQv/+2DzfbJCiNgo01wvtgOA8vLyMiDGAwBm1tKshViOhi1wUQwEd4/gmkKIaNHmR91qENsBQBAEm2YAYvmMW9tWLYKcDFfQwh2g1dbWjmUO/7GCECJ6Y8eO1fZIm5k36KoVNmaO/QBAUwMjfkVPHTEcDA51K45SSu7+hYipDRs26HwMMFpjrVBtPgCIJWZ+v5Y6imN77GMpsICOMK+nlIrr6ZhClDo1fvx4Lf1hgHg3DCPqnTm1AMR1GkPLGQbE6j866ojhYeDFUK8X3+OxhShpzPxmfX19oLFenA8N6wJ6BwDvGg4yXFpOMdxQvs+/Ed+OT0WPmP4b6vWI5BGAEDFERK9rrhfbAUBPT0830HsWgLYpk5Bp6fp0TEtdHvE++amoKahQZwAgrZ+FiCtNB8RtEtsBQD6f750BYOa4DgD2SCaTev4CmNZoqSOGzCKEOgPAzJPCvJ4QQhstR8RvFOcZgGQyGfsZAGvs2LH7aKlE6gEtdcTQkfVCqJcj+kiY1xNCaPOUzmLMrGUdWgQ21NXVKQCwlFKxbWaglJqsow4FaoWOOmLIgg1lox4L62KO44wGEPrxwkKI6DFzaD8LBpLJZKoQ34PiNq2VsIjoZZNJRoKZD9FRZ/qaW9oYkO2Ahecfx7T8OrQZLGY+AIDOTmJCiJDYtv13XbU6Ozv31lUrbMz8xsZfWwBiOwAgokO11QJW6qolBm11mBezbfugMK8nhNAmHwTBE9qK5fO6jx4O05sbf2EBWG8wyIgws7YBABNadNUSg8Vrw7yaUurAMK8nhNDmqVwup227NhHFdgBARP+bAbAsK7YzAAD2nzNnzs46Co2y7IUAtDWZEAMLCKvCvJ5lWTIDIEQMEdFfNdfbS2e9MG3eL8EKgiDOz7atzs7OmToKHXH/vJcAkt0AhYLx71krFoS66peZZQAgRDwt0VmMiPbVWS9km3ZOWUEQPGMyyUjZtj1LY7m/aKwldoRwO4V4kFU6na4AoGVXiRAiVN22bd+rsyAzf0xnvTAx83Mbf20tXbr0FQBvG8wzIsysbQDQYwd3AAj1+FkxTErdHublmPlIyA4AIWKHmVc2NDRoa2l/3HHH7YQY3yww86bmaVbfB542F2fEpvXdvUXu6PtvfhWA1pGm6NfTM1bf/LcwL6iUmh7m9YQQ2uR0FisrK5uCGJ+ka9v2lgMAIlpnLs6Ijenp6UnqKkbgG3TVEttDUTyK0bKWRAgRKpVIJP6ss6Bt20forBe2MWPGPL/x1xtnAGJ92A0R1eiqNW3lhxZBDgcyKWDmm8O8YF1dncXMMgAQIn6aGxsbnxv4ZeFh5mk664Xsxfr6+k3N0zZOYzxqKEwodA4ACHWKgOt01RPbuGPmqvmhzli1trYeRkS7hHlNIYQW83UXZOapumuG6MnN/2PjDMAjZrKEZpLjONq2cCW67Fug/+hJAQCW+lnYlwyC4NiwrymEiBYzv87MTTprptPpfePcA4CZtxgAJABg+vTpbWvXrm0HUGkkVThOAvC4jkJHtM7rWD1j7q+Z8D0d9UQvBt8z84Gbozia+ZMRXNOE/xDRD02HKBV9O5DONJ2jhN2ks/sfAARBkCYinSVDZVnWFu2SEwBQV1enXNd9FEBsV0IT0UkAfqCrngJ+TsCFAGTqWBemn4R9yXQ6XREEwdFhX9eQpmw2O890iFKRTCYXVFRUTEaMf27GWHsQBD/VXZSIUrprhkkpte0jAAAgoof1xwnVoalUapKuYjNXzX+DIDMAGt09c9X80Lt95fP52QC0bCONmmVZy01nKCUtLS15Zj4DgLY96GKTX/b1sNHGcZxxAD6hs2bYgiDY4sTETQMAZg61r7oJSqnTddZ7bo93bgDhHzprlqjugPjiKC5MRMdHcV0DAmZuMR2i1ORyuaeJKJLvTdE/InqPmbXf/VuWVQ1glO66IXqhubl5i9b/m88ArNCfJ3RnAdD2gOaU+vqAwF/RVa9UMfHVR61Y8OTArxyaTCZjA/DCvq4hrdls9s2BXybCls1mfwfgj6ZzlApmvi6Xy72quy4RpXXXDFnr1h/YNADIZrPPMPOLevOEbp9UKqV1imb6igX3Alios2aJeRbq3R9FceH29vZPAtgtimsbINP/BnV3d18A4N+mc5SAF5g59LVAA5kyZUoZMzu664aJmbfpnrpFO8NimAVQSp2nuyYFdCGAOB+rXKgUgT8/c1X9hoiu/+mIrqsdMy8znaGULVu27G3Lsk6HnBUStQtzudw7uotOmDDBBbCr7rphIqKHtv7Y1gOA+/XFiczJruvurrPg9DU3vcxsnYUQT6cTABP/v+krFyyN4trJZHIMgBOjuLYB7wKI/eA97pqamlYx8xWmcxQrIrrD9/27DJU/21DdsLBSau3WH9xiAGBZ1t368kRmFIDP6y46c9WNzUT0c911ixaj5fkPvvv9qC5fUVFRC2CnqK6vExE1694PLfpXVVX1Q8iBYVF4K5/Pf8lE4dmzZ7+fiOK+Vuhf/a2b2GIA0NjY+ASA/2iLFJ0v9N3hafXGuPJvAYj7dspC8HJg8emn1NcHEdbQPkiMkKm7IrGV+vr6IAiC0yGPBENFRF/ZegW7LolE4nwAZSZqh4WZ7+vv49scacjMzdHHidzuFRUVZ+su6uZ+2UVBcCqkTfBIdCnglKNWLIhsQarjOPsDOCaq62uWB5A1HUL8T3Nz80tE9GkAUQ5gS8lv+3ZaaJdMJhNEVAw3C4MbAFiWVQwDAAD4ZjKZTOguOn3NLW0KlgtGu+7aRSBgxmdnrZzf7zdrWCzL+iI0bheN2H2y/a/wZLPZe6GxM2kRW81sbqt1RUXFiQD2NFU/LMzc7/q+bQYAXV1dywF0R54oevtWVlZqbQy00ayVNz5oEU6FrAgeCmbG+TNXza+Pskhtbe1YZp4bZQ3NGkwHEP3zff8KALebzhFj6y3LOtnk+hYi+qap2iF6KpfLPd/fb2wzAFi2bNnbRFQUW4qYuc5xnNEmak9bOT9LoAtN1I4lwtdmrpq/IOoy+Xz+XAA7R11HE1ZKyfP/wsWVlZVnA1htOkgMdRHRKU1NTS+YCuA4jgNgiqn6IdruI8JtBgAAoJQqlsY2+wD4oqni01feNA/AtyDbA3dEMfNXZ6yYH/oxv1vreyRUTJ0bVy1ZsuRZ0yHE9tXX12+wbTsN4GnTWWKkh5kz2WzW6LZ0y7L+z2T9sDBzbnu/1+8AYMyYMXehSKaviej/jjvuOGPbvWasnH81CJ9DkXw9Q9ZJwOkzVy24TkexioqKzwL4kI5aOhDRH0xnEANrbGx8LQiCGgDPmc4SA3kiOi2XyzWaDJFKpVwAs0xmCMl729sBAGxnALBo0aLXAbRElUizXcvKyupMBpixYv7vCHQygE6TOQrM62Txp6avnP9nHcWmTJlSBuA7Omppku/p6bnDdAgxOM3Nzets2/44Ea0znaWABQDOymazd5oMUVdXZwG40mSGEN29ozUU/Q4A+vwlgjBGENFFrusebDLD9JU33UVEtZCjQwHgX1aCpk5/YMEDugpOmDBhLoD9dNXTYInu41DFyDQ2Nj5HREkAoR9sVQS6iehs3/eNH6r04IMPfoaZDzedIwxEtMOZlO0OAJj5dgAdoScyIwHgehje+jV9xU13W5Z1BIC/D/jiIsXArZ2jRh857b6btB2cMnv27EoU192/TP/HVFNT0wuJROITAB4xnaVQMPPrzDw7m83eZjpLOp2uQPHc/ff09PTscJHwdgcAfQcuLA49kjlHO47zBdMhpj1w41Odo4LpAP/CdBa9+BUQHz9z5fwzj2n59Xs6K5eVlV0KYA+dNSP2rmVZsv0vphoaGl62bXuWDOIAAP8CMC2Xy/3VdBCgd+cYgL1N5wjJ0ubm5jd29IIdPQIAMxvpvhQVIrradV3jf7nHtNzSOWPlgi8T6LMAtL4ZGrKwbFTiIzNWLND+puW67t7M/HXddaNERH9ubGwsltm5ktTY2NiRzWbPAPBlAD2m8xiypLu7e0YulyuIHRKO4xxksulQBAbsqbLDAUBVVdVyAP02EIipsUQ0v2+Rh3HTV950mwI+CqJFprNE5F+wUDtj5fyTj2iZZ6o98rUAyg3VjsoNpgOIcPi+/wsiOhaAkT73hmwAcMmRRx7pLVu27G3TYYDehX+WZd2AmPf830w3BtEkbMBn4q7rXg6gLoRABYOZL83lcj82nWNza2ae+0kFvh7AgaazhOA1Yly5YfRevzqmpc7Y9kfHcdJEVGxT5Wt9359mOoQI15w5c3bu7u7+PoCLMMCNWcyttW37rL6D5wqG53lfA3CN6RxhYebFvu+fMNDrBvxGC4JgHoqjNfAmRHRlKpU60nSOzU1bedM9b+5UcTiA7xLwluk8w/QOE/+gc9Tofaevmv9zk2/+nueNJ6Kiu1Nm5qL7Mwlg8eLFb/m+/2XLso4F8JTpPBHoJKLvdHR0zCq0N/+ampoDUGTnNliWNaiuqoNaFe84zp+I6LSRRSo4/w6C4IiBFkmYcG/ygqryrq65TPQNgOOweK0NwPy8NWrexx/4TUEcTOO67u8BfNZ0jpC9Zdv2HvL8v7glk8kx5eXll1mWdQkzV5nOM0KKmW9NJBLfa2xsLLhGSI7jjLYsayWAj5nOEqL17e3te7W0tAx4AzbYAcAsItK2Z1sXIlre3t5eM5gvlAm+c/Ho97294SwGfw3AZNN5tqIA9gn45bSVC+6mAmp37LruKSiiPhab+YXv+182HULoccIJJ+zS1dV1MYCvAhhnOs8wLAPwDd/3C3bLYyqV+jkzf8l0jjAR0VVNTU2XDeq1g72o4zitRFRMoyQAABFdm81mC36V+NpZ530kYM6A+UwQ9jUUIwBhNSnUQ9HC6WtEkzunAAAXVklEQVRuKrgFop7n7cfMDyOePzB3RAE40Pf9YpweFjswe/bs95eVlX0TwOdjMCPQA2ARM/8il8utMB1mR9Lp9Byl1J0onqPBAYCZ+cOD/TkxlAHAqUSkpW2rbkT0+Ww2O890jsFg1FlrZj33CQWcRGwdDfBHEO2iobfBWE6ExT3WqKZCmeLvTyaTKW9vb78fxXGC19bu9H3/JNMhhDm1tbVj8/n8qcx8DhHNMJ1nK+uZeV5ZWdkNDQ0NL5oOMxDP8w5E7ymNRXWjQET3NDU1HTvo1w/2hZlMxu7o6HiCmScOL1pByxPRnGw2u91jEwvVvcmzdy7vScxk5pkMnkGg/dDb9GY421neJuBxBX6UYD1CAVZMW7PnY4Q6FXLsSLiueyuAM0zniIJlWdOamprWms4hCoPjOAcB+JxlWXMM/kx+GUAjMzdUVVU119fXx2KxeG1t7dggCFYDOMh0lrARUW1TU9OgD1Ia0tSH53nnF+sqZCJ6Tyn1qVwuF/uzu2/PZOx9Xq76oFK0NzP2JrYqN/6eIrUTMVkAdxCsl2Cp9Sqg9aO67RePaJ0X28Vlrutegt49/0WHmVtyudwxpnOIwuR53n5KqWoiqgbwSQBjIyq1gZkfAXCfZVkNU6dOXV1XF4+bg42mTJlStvvuuzcAqDGdJQJPT506dfJQ/k6GNABwHGc0Ef0bwAeGHC0e3rJt+9jGxsa/mQ4iBs913ZMA3I7i3T/t+L6/xHQIUfgymYzd2dk5SSl1MDMfAuBgAB8G8EEMfmDQAeA5InoBwDMAHlJKPfjKK6881traGueuheS67nwi+pzpIFEgoq80NTX9fEifM9QijuN8hYh+NtTPiwtmfp2IjvF9/1HTWcTAXNc9GkAzgDGms0Tk777vH44C2mUh4slxnNG2be8KYNd8Pr+rbduE3jf7jcfFdpWVlT2/ePHiuPYh2SHP864A8F3TOSLyrlJqz74zfAZtyAOAZDI5pqKi4ikAew31c+OibxBQ4/v+Q6aziO3zPG8KMy8DsLPpLFFh5kwul7vDdA4h4szzvAsA/Mp0jqgw84993790qJ835CnTlpaWTiIqluMS+0VEuxDRvTU1NYNeTSn0chzncKVUM4r4zR9Aay6XW2g6hBBxlkqlzgTwS9M5ItQZBMF1w/nEYT0zbW9vX0BE64bzuXHBzFWWZTV6nnei6SxiSzU1NVOJaDkR7WI6S8S+A5n6F2LYXNc9iZnno3jXBwHAb5ubm4d1mNSwvigtLS15Zv7ecD43ZsqZud5xnK+ZDiJ6eZ5Xbdv2PQDGm84Ssftl4V/hmj17dmUymUyYziG2L5VKnUpEfwJQzH9PnbZt/2S4nzzsUZHv+39GbyOFYmcR0TWO49zgOM5o02FKmed5ZzBzYwy6oY2YUurbpjOI/tXU1OxTVla2qqKiojWdTh9lOo/Ylud55zDzH1A8x/v2i4jmj6Tx0ohaILquOw3AqpFeJ0bWMPPJuVyu4FrgFrNMJmO3t7dfCeBSlMD3GhH52WzWM51DbMtxnFm2bd/JzO/v+xAz8y19R4y/ajScAAC4rvslIroOxf+zoj2fz08a7vQ/ANgjqd7W1vbCpEmTJgI4ZCTXiZE9ieiMSZMmPdbW1lbUayAKhed547u7uxcCOBvF/w8aAHqY+aR169bJm0mB8TzvNCJaiC0XnhIRHU5E5x1wwAGdhx566EOPP/64rNswg1KpVB2Aq1AaPyuuyuVyg+76158Rf5FSqdQeSqknAVQO+OLiwcx8YyKR+KoczRqdVCp1pFLqjwD2N51Fo5/6vi9rTgoLpVKpy5n58kG89m9E9EVp26xXX4+DBcz8GdNZNHlVKTVxqPv+txbKKMnzvEuZ+aowrhUzjwI4R/oFhKvv3In/Y+bvorgX8Gzt5e7u7gOWLVv2tukgotfs2bMrE4nEbUQ0ZwifFhDRrxKJxOXF2lSnkFRXV38gkUjUA5hlOosuRHRxU1PT9SO+ThhhkslkoqKiYi2Aw8O4XszkAfw6n89/e+nSpe2mw8RdTU3NIZZlzQMwzXQW3Yjo7Gw2+zvTOUSv448/fq98Pt8A4LBhXuINIrq6vLz8l/X19RvCzCZ6OY4zy7Ks29Hb6rgkENGTL7300sFhtGUO7TlJ34LAlSju/ZY78gyAS3zfv8t0kDhKp9MV+Xz+e0T0NZTWXf9Gq33fnwnZ918QXNedRkSLAewewuVeIKLvv/feeze3tLTkQ7ie6O3rfzERXYMiX+m/NWae7fv+3WFcK9SFEp7n/ZKZLwrzmjG0lJm/msvlHjcdJCbIdd0zAPwQwJ6mwxiSJ6Lp2Wy21XQQAXielwFwC4CKMK9LRE8y83ez2ewdkIHesDmOsxsRzSeitOksBtRns9lTwrpYqAMAx3HGEdE/AOwd5nVjSAH4CzNfKQOB7aupqTnWsqwfAZhqOothV/m+f5npEALked730duBMbJV5Mz8oGVZlzU1NS2PqkaxchzHsSxrAcKZmYmb9kQiceBdd93137AuGPo3ued5H2fmFpTuo4DNKQC+bduXyxHD/1NTU3OUZVnfR+/Z5aXuiY6OjsNbWlo6TQcpZel0ukIpdQuAjMayD1iWde2UKVMahnKGeylKp9O7MvNPmfmzprMY9K1sNnt1mBeMZJTruu7PAXwpimvHlCKiO5VSP8zlcg+bDmNCJpMZ1dHRcQozfxnAEabzFIgAwCzf99eYDlLKamtrPxgEwV0w933ZRkQ/LS8v/50sFtwGua57BhFdC2A302EMemT9+vVHhrHwb3ORDAAymUx5e3v7wwAOiOL6MbeSmX8N4I5cLtc14KtjLp1O7xsEwVkAzgfwAdN5CgkzX5PL5b5hOkcpS6VShzJzA4APmc4C4DUA823b/sVI2rsWi3Q6PVUp9TOU0Pa+7cgDiGSNUGTPufqauDyAEluhOVjM/DoR/ZmZb8vlckV1poLneeOZ+Xj0du87GqXRlWuonqysrDxc7vjMSaVSJzPz7xDyYr8QdAL4vW3bv2poaPiH6TC6pdPpDyulLgdwKuRnBwD8IJvNRnL4XqRfXMdxvta3TUPsABGtY+Y7LctafMQRR6yJ4/NA13V3J6JapdSJRPRJyMBvR7ps254p60KMIc/zvonenSeFvlaplYhu7enpubW5ufkN02Gi5Hnefug97+MclOZW4P78Syl1eFSzxVGPrsh13QYAqYjrFJP1AJYCWJZIJJYX6lSg4zjjAMwiouMAfArARyGj9UFh5otzudyIu3iJoUsmk2Oqqqrmx7BlbDuAxQD+tH79+qVhPws2iFzXPc6yrC8xs4vCH5Dp1GVZVqQ3CpH/wD7hhBN26erqehjAXlHXKlJPAVgDYI1Sau3YsWMf0z1tnE6nK4IgOIiIDgUwjZlnADgI8o91OBb6vn+y6RClyHXd3S3LWsTM001nGaHXAdwBYJFSqiWOa4lqa2snBEHwaQDnofdnidgKM1/i+/7Poqyh5Y7N87yZzHwvgFE66hW5AL1dBx9l5jYiehbAs8z8HIBXc7ncaxhik5FMJjNqw4YNuxHRhHw+vwcR7QtgPwD7EdGBzLwf5M0+DP8eNWrUx6Q/vH4FttgvTO8S0VKlVJNlWXc3NTW9YDrQ9nieN56IXACnMXMNZJp/R/xsNptCxA2jtE3Zuq77BQC/0VWvhCn0riZ+D8C76F1B+uZWr9kZvac3VvT9eiedAUtUt1LqqCVLljxoOkipcV33eCK6DUCV6SxR6+s2uBxASyKRWB1m05ihqqurs9auXXsIgGMsy0ox89GQN/3BeEkpdWgul4v8SHCtz2xd1/0tgM/rrClEgfiC7/s3mA5RajzPuxTxWOwXlZeYeQ0R/Y2ZHwfwaGVl5dP19fVB2IUcx9mTiA4josOZeSoRHQVgfNh1ilyglJqdy+Xu0VFM6wBgypQpZRMmTLgbwCd01hXCsF/4vv9l0yFKieM4oy3LugHAWaazFKAuInpWKfUfIvoPgOf7tiW/zsyv27b9lupjWdbb+N+b+Ggi2hnArn3/252Z9wGwP3ofGe5s4g9TTIjo0qamph9rq6er0Ea1tbUT8vn8Gsh5AaI0LO3o6PDkFDh9+hYeLyQiudEQcXJnNps9GRoPitI+LdbQ0PAyETnY9rm0EMXmyVGjRp0qb/76eJ730e7u7gflzV/EzL9s2z4bmk+JNPJcLJvN/gvAHACx274ixCC9CaBWVvzr43meB2AlgH1NZxFiCN6wbbu2oaHhXd2FjS2M8X3/PmaeCzkXWxSfDqVUre/7T5kOUio8zzsfvY1yxprOIsQQdBPRKQ0NDetMFLdNFN1o3bp1j06aNKkDvZ3khCgGPcx84pIlS7Ss4i11yWQy8dGPfvQXAK5A6a70F/HEzHxONptdbCqA0QEAALS1ta2cOHFiGREdbTqLECOkiOizvu8b+wddSqqrq983ZsyYRgCnmM4ixDBc5vv+r00GMD4AAIB169bdM3ny5LEAZprOIsQwMYALfN//nekgpcDzvAMty7oHwBTTWYQYht9ks9lvmw5RMFNm2Wz2GwBuNp1DiOEgosuk0Y8erut+Cr2L/SaaziLEMNxRUVFxsekQQAENAABwZWXleZBBgIgZZv5eNpu92nSOUuC67oVE5EOazogYYubF7e3tn46iE+NwFFRf5r4vylzXdTsAXGg6jxADYGa+JJfLXWc6SAl5FbJzSMTTso6Ojk8XUl+QglgDsLW2trbcpEmTxgOYZjqLENuhiOh83/flgCuN2tra/jl58uS/AzgRBXYDI8QOtFiWlV66dKnWo9wHUpADAABoa2trnjx5chVkYaAoPHkAZ/q+/3vTQUpRW1vbkwcccMADAE6GHDEuCt+9FRUVtYsWLWo3HWRrBTsAAIC2tralfX0CjoOBcwuE6EcHgFN937/DdJBS9tRTTz07adKkFUR0MoDRpvMI0R9mXszMJ9x1110Fdee/USzeVD3PO4OZFwAoM51FlLSXlFLHL1my5EHTQUQv13UP7lsUuKfpLEJs5c/r168/s7W1tcd0kO0ppF0A25XNZm8DUEtE75nOIkrWo7ZtT5c3/8Li+/6jQRB8HMATprMIsZnfTJ069fRCfvMHYjIDsJHrugcDaACwj+EoorTc3d3dnVm2bNnbpoOI/nmeNx69ZwFIR1FhEhPRFU1NTXWmgwxGrAYAAFBbWzuhp6dnERHNMJ1FlIRfdXR0fKWQtu6I/iWTyTGVlZW3ondxoBC6dQE4O5vN/tl0kMGK3QAAABzHGQ3gBiI6y3QWUbQ2ENHF2Wx2vukgYkjI87xvAvghYvKIUxSFNy3LOqGxsfGvpoMMRSwHABs5jvMVIvoxZHGgCNcTQRCc3Nzc/E/TQcTweJ7nAfgDgJ1MZxFF74m+N//YrUOJ9QAAAFzXPQJAPWRdgAgBMy/q6en5nDzvj7+ampoDbNteDODDprOI4sTMf8nn83OXLl1acHv8ByP2AwAAcBxnNyL6I3r7BQgxHJ3M/I1cLne96SAiPNXV1e9LJBK3AnBNZxFFJWDmy3zfvwYxbk1d0I2ABmvdunUdhx122B+7u7u7iOhoFMmfS2jTGgSBu2TJkqzpICJcTz/99Ia2trY/TZo0qZ2IkpCfDWLk1hPRiX3b02OtKGYANtf3SOA2AAeYziIKXp6Zr62qqvpefX19t+kwIlrpdHqqUurPAPYznUXE1rJ8Pn9mc3PzS6aDhKHoBgAAkMlkytvb268CcDGK9M8oRuxxAGf5vv+Q6SBCn+rq6vfZtj2fiOaYziJipQvAt7LZ7M8R4yn/rRX1m6PrujUAfgtgb9NZRMHoAXAtM9flcrku02GEGa7rnk1E10F2CYiBPa6UOiOXyz1sOkjYinoAAADpdLoin89/j4i+Dnn+V+ruI6ILs9nsY6aDCPOqq6s/kEgkbgTgmc4iClIewLVKqcuL9Wah6AcAGzmOM4uIbgRwoOksQruXAHzd9/0/oYim70QoKJVKXcjMVwGoNB1GFIxHlFLnFONd/+ZK5o543bp1/x03bty8qqqq1wHMhBwhWgryAK7v7u4+ubm5WZ71i3499dRTa/fff/8/2rY9EcBk03mEUZ3M/P2XX3757Pvuu+8F02GiVjIzAJurra39YD6fvxrA6SjRr0EJyBLRt2S6XwxFKpVKM/P1AD5kOovQbrllWRfFsaPfcJX0m5/jOLMA/EQOFioqa5j50lwuF6ue3KJwOI4zzrbtHzDzBQASpvOIyP0bwFey2WyD6SC6lfQAYCPXdY9H7+EhB5nOIobtCQDf8X3/TshzfhECx3EOsm37GmZ2TGcRkWgnomvKy8uvrq+v32A6jAkyAOiTyWTs9vb2MwFcDtk2GCePEdH/mzp16u11dXXKdBhRfFKp1LFKqZ8S0SGms4hQ5AEsyOfzdcXS0Ge4ZACwlSlTppS9//3v/zQRXQY5RKSQPcrM11RVVf2hvr4+MB1GFLdMJmN3dHTMZebvENFepvOIYWEAi4Ig+PaSJUueNB2mEMgAYDv6/sFnmPnbAA42nUcAAJiZlxLRdb7vN0Om+oVmjuOMtm37PGa+DMAHTecRg+Yz8xW+768xHaSQyABgEGpqao6yLOtLAE5ECW2dLCBdAG4noh/Lqn5RCDKZTHlHR8fnAXwLwATTeUS/GEADM18pLb/7JwOAIaiurp5o2/ZFAD4HYJzpPCXgCSKab1nWLY2Nja+ZDiPE1pLJ5JjKysoziegSZpYDyApDHsCdRPTDpqamv5sOU8hkADAMff/o08x8PoBjIV/HMHUCaCSiedlsdjlkml/EQF1dnfXQQw95zPwlAMeZzlOi3iGiW5RSP/V9/z+mw8SBvHGNkOd5+wE4m5lPhxwzOlx5Zl4O4Paenp6Fy5Yte9t0ICGGq+/Y4c8DOA3SXliHx4nol93d3bcuXbq03XSYOJEBQIg8z5vCzCcT0cnMPNF0ngIXALgPwF9s214oU/yi2DiOM86yrNMAfBHAYabzFJkNAJoAyEzhCMgAICKu6x4GIAXAATANsngQzPw6ETUDaAqCoLm5ufkN05mE0CGVSh2plPoMEZ0KYHfTeWJKAXiAmW/O5/P1crc/cjIA0MDzvPHofS5YA+DoEpod2ABgNYC/MvOyqqqq1bJnX5SyTCZjd3Z2HquU+gyAEyCLiQeiAKxi5tsTicQdDQ0NL5oOVExkAGCA67q7A5jFzEcR0UwAh6I4TidcD6AVwGqlVAsRPVis52gLMVKZTGZUZ2dnUil1PDOnpcHQJl0A7mPmJsuyFjY1NRX9qXymyACgACSTyURlZeWHlVKHEtGh6H1eOAnAXijMRwc9AJ5B7za9fzBzKzO35nK5500HEyKu0un0x5RSHoBPApgOYIzhSDo9ByAHwO/p6Vku0/t6yACggPXdIeynlNpfKTUJwN5E9AEi2gPA7sy8B4DyCEorZl5PRM8BeAHA8+j9B/q0UuqJV1999ZnW1taeCOoKIdDbaGjDhg0zmfkYAEkAH0M0/9aNIKInmfkBAPcDuD+bzT5jOlMpkgFAzNXW1o7N5/PvU0rtZFnWzsy8k2VZOwGo6HtJAsDYzT4lAPAOADDzBiLqZOa3ALzJzG9alvVGNpt9U++fQgixI8lkMlFeXn6wbdvTlFJHEtERAA4AMMp0tkF4jpn/RkQPM/PfEonEgw0NDS+bDiVkACCEELE0ZcqUst13330iEX2EmQ9k5o8Q0T7oPc1U906DTgD/ZuYnLctqA9BGRE8lEonHFi1a9LrmLGKQZAAghBBFJplMjqmoqPgQeh8bTiCiXZj5fX3/vwuA8ehdX1SB3gXIo/t+3QWgY7NLdaN3xvBtAG8x81tE9A4RvRgEwXrLsv5rWdZ66eMhhBBCCCGEEEIIIYQQQgghhBBCCCGEEEIIIYQQQgghhBBCCCGEEEIIIYQQQgghhBBCCCGEEEIIIYQQQgghhBBCCCGEEEIIIYQQQgghhBBCCCGEEEIIIYQQQoj4+P+tkdujoQULRQAAAABJRU5ErkJggg==;" parent="1" vertex="1">
          <mxGeometry x="540" y="184" width="32" height="32" as="geometry" />
        </mxCell>
        <mxCell id="q5o3RwCFdbamAJQa6zpr-84" value="&lt;p style=&quot;color: rgb(0, 0, 0); font-family: Helvetica; font-size: 8px; font-style: normal; font-variant-ligatures: normal; font-variant-caps: normal; font-weight: 400; letter-spacing: normal; orphans: 2; text-align: center; text-indent: 0px; text-transform: none; widows: 2; word-spacing: 0px; -webkit-text-stroke-width: 0px; background-color: rgb(248, 249, 250); text-decoration-thickness: initial; text-decoration-style: initial; text-decoration-color: initial; line-height: 1.2; margin-top: 0pt; margin-bottom: 0pt;&quot; dir=&quot;ltr&quot;&gt;&lt;/p&gt;" style="sketch=0;aspect=fixed;pointerEvents=1;shadow=0;dashed=0;html=1;strokeColor=#36393d;labelPosition=center;verticalLabelPosition=bottom;verticalAlign=top;align=center;fillColor=#eeeeee;shape=mxgraph.mscae.enterprise.lock;fontSize=9;" parent="1" vertex="1">
          <mxGeometry x="39.92" y="40" width="14.08" height="18.05" as="geometry" />
        </mxCell>
        <mxCell id="q5o3RwCFdbamAJQa6zpr-85" value="Value is passed securely, is not saved, does not get printed to log and does not appear in audit log" style="text;html=1;strokeColor=none;fillColor=none;align=center;verticalAlign=middle;whiteSpace=wrap;rounded=0;shadow=0;fontSize=9;" parent="1" vertex="1">
          <mxGeometry x="54" y="34.03" width="406" height="30" as="geometry" />
        </mxCell>
        <mxCell id="WIMky8w4s6uUprDFQZg4-1" value="" style="shape=image;verticalLabelPosition=bottom;labelBackgroundColor=default;verticalAlign=top;aspect=fixed;imageAspect=0;image=data:image/png,iVBORw0KGgoAAAANSUhEUgAAArwAAADICAYAAAAKljK9AAAAAXNSR0IArs4c6QAAIABJREFUeF7tnQuYXFWV79c+3XlBQgJhVJ4CIldHBkEEBFESrzA+7xUVR1GujONleHQl6aoW0XFMtTryCVXVoatBxKuCXBTF19zrYwxy0xmE4AUhDCIqIJCAPPKg84Ak3dW1h326TuXUqXPq7H3ej//5Pj9i1z57r/1b+1T9a9XaazPCBQIgAAIgAAIgAAIgAAIZJsAyPDdMDQRAAARAAARAAARAAAQIgheLAARAAARAAARAAARAINMEIHgz7V5MDgRAAARAAARAAARAAIIXawAEQAAEQAAEQAAEQCDTBCB4M+1eTA4EQAAEQAAEQAAEQACCF2sABEAABEAABEAABEAg0wQgeDPtXkwubwSG1ly+pGvOTer4G2fsDBsu3ff5gzduvZ1xvrarS430dpWln+lq72943A0CIAACIAACewlA8GI1gEBKCHSI2SYtsQjXoAVrnFR08dshkCGM4/QHxgYBEACB1BOA4E29CzGBLBAwi1nO2UrTnLIkZINy1XhbDGs0juhwUFjRDwiAAAhklwAEb3Z9i5klkEBb2HZGaCFqg/HVXiH8i6fGK5UxpEkEwxW9gAAIgEDqCUDwpt6FmEASCejCFqI2PtdMNdfz1U8fT4wNCyNqldFyfMZgZBAAARAAgbgJQPDG7QGMn3oCELcJdeE9W9fzZ3cdb1jHicYZY2s1aiL6m1CXwSwQAAEQCIsABG9YZNFvJglA3KbIrUaU18lkxoYR+U2RP2EqCIAACPggAMHrAx5uzTYBI9/WtIkMubYpczn/2VPuFiPtwZ0RWoAACIBAyglA8KbcgTA/OAIQuMGxTExPlrSGXnYZKQ+I+ibGezAEBEAABAIjAMEbGEp0lEYCQuQigptGz0na7JbW4NQN0h0kAaMZCIAACKSDAARvOvwEKwMiYIniIkUhIK6J7kYhytsxD4jeRLsVxoEACICACgEIXhVaaJtKAojiptJtwRntNcprWADhG5wv0BMIgAAIxEQAgjcm8Bg2XAImkYsobrioU9G71Oa1XjOB6E2Fn2EkCIAACDgRgODF2sgMAURyM+PK4CfiNa3BZInY1DZSrS8N3jj0CAIgAAIgEDYBCN6wCaP/0Akgmhs64vQP4DetwSCASG/61wJmAAIgkEsCELy5dHv6Jw2Rm34fRj0D32kNEL1RuwzjgQAIgEBgBCB4A0OJjqIgAKEbBeWMjhFAWkObDCK9GV0kmBYIgEBWCUDwZtWzGZvX0G2XlzljKzM2LUwnSgJBpTUg0hul1zAWCIAACARCAII3EIzoJAwC5mjuvL6p9dYxDp+3aZv5b8fO/8tCa5tj5j9zvF/bHn2xSY++yB27mW7O7rLNaLx9enGHjeLvWycP77BzYuoVvm30O8fc3B9klJeINMaXVipj47nhh4mCAAiAQEoJQPCm1HFZN3vTxtOXME5rkjBPN8EbpI2GeLYKZUMkQxz7pB2w4EXlBp/+wO0gAAIgEBEBCN6IQGMYOQItoStSFxJTP3frFKd7tjXlJhBhKyGOzcJYiGIIYhcHBJ3WIIZDPm+Eqx5DgQAIgIA3AhC83rjhroAJJFHoGlNMquB1c4FZEEMM76UVWLUGkwOQ2uC2GvE6CIAACMRLAII3Xv4YnYg2bzhdpC4kJqJrdUpaBa/T4sq9EA44rUFwRmoD3spAAARAINkEIHiT7Z9MW5ekPN1eoLMmeJ3m+vzUQWvFa5mPBoeR1iDAIbUh0+9XmBwIgEC6CUDwptt/qbU+6VFdM9i8CF7rYjJHgv/8wslnpHax2RgeRlqDGAapDVlaJZgLCIBAlghA8GbJmymYS1qiuhC89ovJiAKnXgCHkNYgiCG1IQVvQjARBEAglwQgeHPp9ngmvemJ08uMUSoPj1i9eToeaAkeNdXiN6y0BkR5E7xiYRoIgECeCUDw5tn7Ec49zWJXYILg7b1YjPSH1ER+QxS8iPJG+MaCoUAABEBAkgAEryQoNPNOIE35uk6zhOCV939qIr8hpTUIUsjllV8vaAkCIAACURCA4I2Cck7HSHJtXVWXQPCqEptpL8RvYqs+hCh4EeX1tl5wFwiAAAiERQCCNyyy6FfU1+VZwQDB68+TQvgmLt0hxLQGRHn9rRfcDQIgAAJBE4DgDZoo+tMJZCGNwezKuyaaE9sbfBHc649A0oRvWOXJDEq1ah3vsf6WDO4GARAAgUAI4M04EIzoxEwg7RvU7LwJwRvcGk+U6A0xrUEnhsMogls46AkEQAAEfBCA4PUBD7d2E8ii2BWzhOANdrWLqg7rt7/z+GB79dDbAxM3NDe88Eq7Oxlj+slzdpdGzfFeo1UqYz1f92ApbgEBEAABEPBBAILXBzzc2kkgq2JXzPLRF5v06IuZSUlOxNINWPR2CEzG+YxY1ajj75Wln4EQTYT3YQQIgAAIREsAgjda3pkeLUub1KyOguANZ+lKiN62QNVFrEnAQryG4xP0CgIgAAJZJADBm0WvxjCnLEd3EeENbUHpYvbZyaP+9aldx643RoGQDY03OgYBEACB3BKA4M2t64OdeJaju4LU1ilO92xrBgst+73pgpZztlbT9ua8fuSEu5BWkH3fY4YgAAIgkCgCELyJckc6jcl6dBeC13Vd6gKWMT5stISodWWGBiAAAiAAAhESgOCNEHZWh8p6dBeCt71yO4QtRG1Wn2jMCwRAAASyRwCCN3s+jXRGeYjuGkBzdNpaVyoCxG2kjxUGAwEQAAEQCJgABG/AQPPWXR6iuxkXvB3iFsI2b08w5gsCIAAC+SAAwZsPP4cyyzxFdwXAjER4kZYQytOATkEABEAABJJMAII3yd5JuG15E7wpPW1t3KiSgOhtwh8omAcCIAACIBAaAQje0NBmv+PNG05fQ0RLsj/TmRmmRPBC4OZlQWKeIAACIAAC0gQgeKVRoaGVQJ7ydxMseNspCojg4hkFARAAARAAAXsCELxYGZ4I5C2dQUBK0PHCiOJ6WrW4CQRAAARAIK8EIHjz6nmf886j4I35tLVx42AHRHJ9Ll7cDgIgAAIgkDsCELy5c3kwE85bOoOgFoPgRSQ3mOWKXkAABEAABHJOAII35wvA6/QheL2Sk7pPj+YikivFCo1AAARAAARAwJUABK8rIjSwEti08fQljJOo0JC7K8RavBC5uVtNmDAIgAAIgEBUBCB4oyKdoXHymL9ruC8EwQuhm6FnA1MBARAAARBIJgEI3mT6JdFW5VnwBliLF0I3plU+NDSwZO4iOn/2AjpCmDCxUdNLu1kvzvkZbiYymzrUnGh8pFpf6nYvXgcBEAABEIiOAARvdKwzM1LeDpwwOy4AwQuhG9OTcOPdF5fF0Ds30cqHb+sL1QqN8aWVypitkA51YHQOAiAAAiBgSwCCFwtDmUAeN6wZkHzU4oXQVV5pwdygC13GVxq97XyOUdiCF1HeYHyHXkAABEAgKAIQvEGRzFE/eRa8XkqTcc6GP3rinXp0EVd0BFpCV6QldB1/LQSvEL5hXojyhkkXfYMACICAGoFw3/HVbEHrlBCA4G3KegpRXVlSAbezRnWt3UcheBHlDdip6A4EQAAEfBCA4PUBL4+35rkkmfC3bIQXUd14ng43oWtYFUVagxgLUd541gFGBQEQAAErAQherAklAnkXvAKWW2kyxvhSHBqhtKwCaSwrdsVgUQleRHkDcS06AQEQAAHfBCB4fSPMVwd5LklmeLpXpQaI3eifBxWha7YuirQGRHmjXw8YEQRAAATsCEDwYl0oEYDgJXISvBC7SkspkMZexa4YPCrBiyhvIK5GJyAAAiDgiwAEry98+bsZgpfIrjQZxG60z8KNd1+4hBgTpca6KjDIWhJVWoOwp1at471W1jFoBwIgAAIhEMCbcAhQs9wlBG/3xjVsUIt2xfuJ6potjVLwYvNatGsEo4EACICAlQAEL9aEEoE8n7JmgLJUahg/9w3rcIys0iry3jgosWtYcN93+70bo3An0hoUYKEpCIAACIRAAII3BKhZ7hKCd8a7RqUGpDJEt9pbaQxrghwxqjxeYTOivEF6Dn2BAAiAgBoBCF41XrlvDcG7V/AilSH6x+HGey7iQY4apeBFlDdIz6EvEAABEFAjAMGrxiv3rSF4Z5aAqNSwbYquwpHB0T4SQac0RJnHK0hh81q06wWjgQAIgIBBAIIXa0GJAATvXsH7nuPu3F8JHhr7JhB0WkPUgjeJaQ1DQwMdlS4qlbFx345CByAAAiCQMAIQvAlzSNLNgeDd66EDD/81np8YFmzQUd6oNq4JVHGmNQhh2yRtCef8DCZZzk3Yyxhbq1FzPCwhXBxaVnZbRmGO32vswV9dfhSR5roplWl0cO1tn/6i2zz0tetynXfSNa5t3Ppwe13GDtFHL1tExR63cXq9fuvth03cs/6vFjm1icvnfuaEe5NNAB/YyfZP4qyD4J1xybqJ/hvee9z4+YlzUA4MClrwRpnHK9wTZVqDELnTnK2UFbiuy4exYX0OlVFfYsc8TrFUcM/LZmw4yDFd59lqcPGa8vx5fO4O1/aM7q4uvezkXu2kf53gbDhs0SuZCz9+3hu/6ij2N2843d1vLuB+9LMj1z7x5PyFu3b3H+/U1PjSFYf/Xf2OBqkiAMGbKnfFbywE74wPLv/zvMerS249Mn6P5NMCyQ9sKThRC94o0hoCF7p2JAMSoRC8NnA5X3reSdeGlloi+fyELniNmQvh+4dHFp3R64EVwreP8WG/vzSIZ8NvH1JvLGiUOAIQvIlzSbINguAVJ6310TUb59ANZ67G8xPTcg0yyhu14A0zrSESoWv2eQARXwheh4coRNGbNMErCMiIXtHOyxdG47kQ95t/7UD0OKY38JiGxQd2TODTOiwEL9FPnpv9+O3P9x/BSFt6/Zn/FloUxrxGvnvfm5Y0m5q+uYgxfgbnbK359TirRVhtE3aZ7QvLNskPbddH7ekHNHrmd5pruyAbhJHWoOfCci6OW47+8hHtheB1dFfPCKsfJ0s+O5FFeI25jHztb9b3Sm8w2sk+P+YvgELcivtFlFjkss+8T83kswcVPfbjE9wbPgEI3vAZZ2oECN6ZdIbNU+wIRjR8/ZmrA8tltC4UISQ5Z0LAdOyid1pQoi6weC0sgWkV4Cq2vTSHcSGCg7QtqChv1JUavEapnPweeVTXyRCPoheCt8dHREj5vEkVvH96dOH6H/z0KMd8XoOUzK8k+iZNzmYOqumxNs1fFL1EjzP1AZ/xyUDwZtzBQU8Pgpeo9Md9Zt5DQxK8qkLX6uMwha9f22aiKmw4KOEr+cHd8zGIQ/DKfGDLPLsdH+oyN4Tcxsu8IHhdnBJCaoPkcxN5hFeQCCrKO1gqrBHRW0PEupXfM9rLRo9DfpTQfQgEIHhDgJrlLvMueI383Rkf8/EbzrzVtWSRynr4zr2nioiEVETXrd8ghaUY66bfnlZmLLCfzMfPfcM63+yCiPLGIXgFT78frEkTu+31qBjpheB1e5L1b4mBbmLLguDtFY1tR21Na7FUKnQcS/7Sl7O2GBYeMJ4nL1/aJDyIJgkgAMGbACekyQQI3pkNa8YV1Ma1ICKndusoKNEbpBA328kYX/qRE+7ynAcdhOAV9kRZi9eYv9+fT6WEYtRvLopiV5gnNQ8P/QYx9VjKktkbHmg+b5IFr2xaQ0/BK0rdWdaMELzMVOVBiGLG+RnVar39xdsQyn6fzSDWHvoIngAEb/BMM91j3gXvLzfPotVbZgUqeFtityP64LSIfr/rMHpo1+H6y6+dt4H+et5GmfXmK5oqK3aFbeIS9inYJjbh+RO991zkux5o2gSv8fOrjPNtvwi1SjwZrxllmoyffVUPqND78ShKIXglvRhgPm8WBK/Temv/8uEieAV1qwg27oXglVyTKWsGwZsyh8VtrjhdhzGKZyd43JMnolWPz53YuEdrnw4URKWG79x7ak/B9qWnPqzP3BCUVgxC9L523kb6wAF3OBLyGul1S2P44dY300O7DnO0TRj0gQPu7Gmb2NDmJ70hiChv1KXJBBevP516rcbgdSe61Hgexa7gAMGr8MYWkOgNQvD6PWnNadb6CWz3HTjiSsVhzRnr1Zoy5CRure309ehjPbvajQaxEYDgjQ19OgeG4LUKXn+VGnoJSiFwDbErs1qE8H3/AXc4Rn1VRa+bbT/a+uaeQtdqs4vw9Sd6fUZ54xC8go9qHq+U+LSA9yp0rf5zHNunOIDglXm6TW0CyOcNQvAqWq3U3M+a6CV4rUZwxtZaT3ATv56IdiOmVAcl49E4sQQgeBPrmmQalnfBa5QkM7zjp1JDL0EphK5TRNdtZfQSlue+YZ30M+8UeRZR3R9uPc3NDNvXe9nmJ7XBb5Q3LsGr+tOpquD1GkV2cm7XRjmfYhcRXk+Pke983iwLXqe0BBHhFQJXo6YokbjSnM9r9gIivJ7WZCpukv7wS8VsYGToBPIueI2SZGbQXjeuhSEoDbs+d8jNtpFe2Sivkxj3I3YN20QkWthnc3mO8qZV8Kr8dKoqdlX6VnnjcMqRVOmjS2C43RyAsHYbwu71BG1a6zTPZ2pDXgWvIXKdRHHQa9vLmsM94RGA4A2PbSZ73rTx9CWMk9QGqywCCErw+hGUpz75GD253/60cb92KjG9eb+NdMf2mU1jxvWdo6+0dYFMJNVJjJ/7yKd6uvWw7RPt1w377GxzEuQytjkZIPkhbnt7XBFelQis1M+8rdmp9Bv3cyo1Lwjebjf5EL2Sz4rvSLLXteV3TYj7rc+ASpUG1VQjr/PEfdESgOCNlnfqR8uz4O2swbvXlV7SGpwEr5OgFCL31Kce71o/r37TTjrnlIfbf7/iyVNJ/E9cTpFUN1HpRYw72Xf+BQ/TwfN26vaYbRP/30GQxxLljeN4YcNpMh+uqjV3ZfpMypuRX3ET5jwSG+E1Ju0xnzfzgrd1zLY5ZUj8QmLN1zX/za52b5hrC31HTwCCN3rmqR4RgndvDV7DkV4Er10E1SldwElMivGLF/4HzZ0z3V5TIsr7339/Tvv/O0RSe4pKO8HrZJuI6J7z0H22a/pjH3yYDj9kRuwal7DNiEQ7CXKVPGNz337SGuIUvDJ5vErpDDFFQ72+sUHweiWn3+cpCpt1wSvAWE9a60XZ/IUyTV8Wfa2cHN4MwZtDp/ud8uYNp/uue+rXhjjud4rwqp645lR3126jWi9BKRh8dnm32DzwrmIbj9MmsV6iUkWMF3/jnN1iFePCKBnB6xaB7uV7yQ/yri6SLnhV6u6m7QMbgrdrOYqDWFROW1QWvZLPiXK/Qb0vB7EmOn4V6fEl0PxlUubLZ1BzRD/RE4DgjZ556keE4O12ocrGNZV0BhE9NefFWke+5O8fpIX7Tbb/bE0b8BJFtRO8dmLczbaTT9hEb3/rkx0mm8W4eMEurUF2Y53dg+Q1yhun4JXJt5USAAJIyqK7wmSpucU0r1hSGjgb1te2yjHeivm8eRC8xvuDWdCKZ40xtla8xjk/g7W+WMg8g6n/4MYECIIXi0CZAARvNzKVAyjsBK9Tzd1eEVTDivee9YQuev+yaz69Z/O5XcbZiUqnKKpT9Nkut9hN8ApDRFqDuBYumKRX/X6gyza7lAsI3k5MKukMaYvuQvDavP22xKvylzeFfN48CV59jYmcXhuRK/7WZzpuWPnDEDekigAEb6rclQxj83q8sHNKA4lvjsPXn7laf1N1u2RzZN3SGezGqZ3SPha+/bKdqAxC8MqIcbONt7z2hI7KEuI1LznGbnwlP8w7uokzwisM6SVUZQVvWqNUiPBaVrQpWnvjPReJnCHZ9AbpFATJZ0S6P7dnUvX1JK8J1bmgfXIIQPAmxxepsQSCt9tVfgWvXYRXVfCKMmBCVFqvsCK8QQheuxxjPxFeMXflyBgRxS14e+UOSufvxvSzv983riSLm7hSGs476Rr9y/ONd1+4hBhTKQMpJVIheP2uWtyfRgIQvGn0Wsw2Q/DaO0A2jzfolAbDGjvBq1qaTGVDXa/qEbLR56BzeL0K3rjq8BqckiJ4jZ9+w3iLsZaEMsaA4HWO8HoSvRL5vBC8Yaxw9Jl0AhC8SfdQAu3L62lrvVIahJtkBa9KnqyKqLRLGQiqSoPdpjUV21Siz34jvLpIuOcipUoicQveXpvNpAQhEQWxw1x2LNW3pV7pFlJjxhS9jjvCa3BW/tXCJZ9X8vmQiharrgWZ9kleEzL2o00yCUDwJtMvibYqr7V43QSvbFqDShRVLASZ1AEnQelR8HblDTptqpMVvXa5xarRZ5WHQlUgxC14fQtCCF6V5SHdNimCt/UlTiWfl85741cdP98heKWXABpmiAAEb4acGdVU8ip4BV+7o4UN7rKCV7T/zr2nSotKkcv7pqcecyxPtu6QI2jdoUfaut9LyoCKbWLQXtUahBC/65Ajuzarifu8iHHZNQ7BK0uqs51UZM1b144b86TGzHmEVxe8AebzQvB6XMS4LdUEIHhT7b74jM9rabJegld4QzatwU5UivvtUgcMLxvC1/j/Ty5YpP/TSew6CUq3lAGnCLTTaWvCBrNt4t9ChIdhm8qKl/xQ17u877v9Kl2H0tapUoOUIESENxSfJCnC60n0OuTzSj4bSGkIZVWh07gIQPDGRT7l40Lw2jtQth6vk6h0Sh1QXS5OYlf0I3N0rxdBrmKjXeRZ3O/nlDXr+ColnZIseGWrNCCHV2UFyrVNmuCdEb0Xl9UOpeBLzzvpWnF6W/uC4JXzP1pliwAEb7b8Gdls8lqpYdXjcyc27tFmQqs2l9+0BtFlr0iqrIOdBKVbdNfoP0xB7jXyLDt3o52sMNj5HCORwxv35SRYZQVvEKesyUaTlVn1Otq1VHDfYIiUhg7kKl/m9Bstm9ggeJVXMG7IAAEI3gw4MY4pQPA6UefjN5x5a/fpDzbNnUSlH9ErNoK9/4A7SPzXesmKXeM+pyivV/t62Sb6lIk8q651mQ/2rAjeIA6egODtXGFJjPC2v9CpVSLpSE+QeS5eOvACKQ2qbzhon2gCELyJdk9yjctraTK3CK/wmGwer2hrV5PX7HWVaG+vNAbRp2q6QC9Brip63WxTFeOyT4bMB3vch0605+IQxZQ9aU304/doYRFNlmWrrynZU8AQ4ZXfdCZRR1ewV97E1nmCm3tUHYJX5VFA2xQQgOBNgZOSaGJeKzX8cvMsWr1lVk+XqKQ1yIhekdf70K7D9TF/uPW09thGFFdEdMVlF9U1GnsVlG6i1xC+4r8P7TqMhK1mW8K0Tea5kElrSLrgHRoaWNLkcqdtBZHHK8PVaCMrxnvZJRVVRkqDrVtk1nfHja3UBpkvgojwqjwJaJsGAhC8afBSAm2E4HV2iqrglRG9fpaAV7FrjOkWhY7TNrexZQRB3DV423PwGwUVHUUsDKXEqkvkWaqPiOdl+CTJKQ2GjV7yeSWPK0ZKg9sbDF5PFQEI3lS5K1nG5rFSg0yEV3hJJa0hTGGpmsbgtMLCEL1+hbjs0+AWzUpChQYxl145uNIb1wIqTybDVja66ybCIXgttCVTGsx3KYpeUbFhiYSPIXglIKFJeghA8KbHV4mzNI8b19xOWzOc5EXwBhzpHWeMD3/khLs6yhH5WUQivaHZ1JYwxlf66Uf8VBq0bb3s6SUGkrJhzU3wqqQ1BLF5Tca/ELwmSozuri697OSe61D24Agvgle2bxnH7m0DwavGC60TTgCCN+EOSrJ5ELzO3vGS1mDuzUdENXQx6cM2iiqq2xH96lG3NDH5uy4RXjEfqUhoa+JR5PLK2uO2kU6qH6Q0uH4UyKTvuHbS2QCCVxEYmiebAARvsv2TaOvyWqnB7bS1GafJlyfr5WQhLsXrLlFVPYobZdRUjKcQ8Q1dhPeOrDkX6k+T4FVJaxA8whS90rZICFUIXsvq9RDhNXpQTG1w+3yB4HUjhNdTRQCCN1XuSpaxed24Jid4veXxunlYiExzmyBTFtzGlnndbF+SbHPK401K/q7Btlc0VCWtQf/KRTQ+Uq1L1YSW8a3RRjqVYeZb2HCtMqp/aXO6IHiDE7yipwBFLwSvyoOBtoknAMGbeBcl18C8Cl6ZWrz6Zz3R8PVnru75YZ9c72bLMicRkCbBKzyiJDZbLgwy0qs0voTY1eeEk9Y6HzYfEV5d8AaXzwvBm623wdzPBoI390vAHwBUaujFL5i0Bn8ewt0zIqA7rSFJ6QyGl9zyXaUFotXtkuLTabWI6PI0ZyulD5rQv/G5R3el58PY8OS7TwpsA6Z5nmNLz3PsNw1lyex8FlA+LwQv3j4zRQCCN1PujH4yedy4JluaTHjDa7WG6D2Z7REzJXiHlpWJe6yUwdiwRs3xSmVMSjx6EroKYldW8PLZ/esnzzrx+DBWKSM+PLb0PNtfYtIqeJ2+5Cnyg+BVBIbmySYAwZts/yTeujxuXJMtTaZ/7iOtITFr2JrHm7R0BgFKJsKri0Q/otfwCGPDxj+FCBb/bpK2hHN+RmvtytRq7fKvau6wTEoDBK+3x8hnPi8ErzfsuCuhBCB4E+qYtJiV1zxe2Y1rELzJWclmwZvEdAYVwRuY6A3BPbKi3RhatuLDnvecEoK14ktpNiO8M1HeC5dInqpmxxaCN5QVh07jIgDBGxf5jIwLwevuSKQ1uDOKooU5rSELglcwkxWLUfDVx5DM2zXbIzuHxknHrJ9++f6BpzVkWfDOiF7nsnwu6wKCN7IHBwNFQQCCNwrKGR8jjxvXZCs16BoAaQ2JeALMH/xJTGdQjfAaUANJbwjAQ16rQciWWwsrrSHrgteH6IXgDeC5QBfJIQDBmxxfpNYSbFxzcx2qNbgRiuJ14+fdpEZ3VXNfzcziFL3C7j7Gh2U3wtn5Os4obx4Ery5677lozUvHeqvkZUPwRvHGhDEiIwDBGxnq7A6Ux41rKpUaZqK82tLrz/w3qZ3x2V0p8c9M5PHnoXmWAAAcoElEQVQmNbrrR/AKsp4rKvhwi1+bO0S7RD3eMKK8uRG86vm8ELw+ng3cmjwCELzJ80nqLEIer7vLkNbgziiKFpd/7ZLHNv1JOyKKsVTHCEo8RhHtDSKqa+UTV2pDXgSvHuVVE70QvKoPMdonmgAEb6Ldkx7j8pjHK1upwfAiNq/Fv56/cNXA+MQGppfdStzlYcNXrzmEJnwDttM6Bxm7RaR3+vVHURCb2PIkeGdEr/QmNgjexL1JwCA/BCB4/dDDvW0CeczjVdm4JkAhyhvvAyMjpGK1MCQhqUdOW/V1lU5Ka8EQ0VzxT795uqpsDbvFfUZtYGsf08cd+YT42/ThL3ulav9Ge0Z8bc+DJ2jedmGAS/9PV9922aG92khHV30eLSzDQTKfNzbBK3K63ebBGFtbq4zi6HY3UHi9TQCCF4shEALI43XHCMHrzijMFnkVvLYRVEPMtg6ZsLYRYkL8TeVUtjB9F1ff5QfLs8uvK0/GNT7GBQEQCI4ABG9wLHPdUx7zeFU3rokFgrSGeB6TxItdIS4ZX+qn0kE8ZDEqCIAACKSDAARvOvyUCiuRx+vuJkR53RmF0ULm+NowxlXpU/WEMpW+0RYEQAAE8k4AgjfvKyDA+ecxj1d14xqivAEuOMmu0hDdDapCgyQSNAMBEACB3BGA4M2dy8ObMPJ45dgiyivHKahWaYjuejmSNyg+6AcEQAAE8kAAgjcPXo5ojsjjlQeNXF55Vn5apiG6q88vpAoNftjhXhAAARDIEgEI3ix5MwFzQR6vnBMQ5ZXj5KdVasQuESF/14+ncS8IgAAIuBOA4HVnhBYKBJDHKw8LUV55Vl5apiKVoTUxCF4vHsY9IAACICBPAIJXnhVaShBAWoMEpFYTRHnlWam2TFN0F+kMqt5FexAAARBQJwDBq84Md/QgAMGrtjwQ5VXjJdO6OFQYJ07JPD7YZgKovyvjVbQBARAAAX8EIHj98cPdNgSQ1iC/LBDllWfl1lI/ipZr3yLiR7i1TcrrKEeWFE/ADhAAgawTgODNuodjmF8eo7yrHp87sXGPtsgLbkR5vVDbe48udElbQpyv9NdTDHenpDpDsVh4E2fsv/QixPj0lr4+7aF99138WLlcbsZAs2PIwcFLXkf92iEL9138K0l7WKlUOLvJ+NyF8w/8frlcbsQ9h6yOXy6fP3f7zgXnMc7mTk7ym+v1+ibJubKhoYEzGqx/YtWVq9ZL3oNmIKATgODFQgicQB4Fr5djhg3wiPJ6W4JC6E5ztpIRLfHWQ/x3pWGz2mWXXbT/5FT/VgVa2xjRJ6rV+o8U7gm0abE48GVi7DOtTh+sVevH9hqgVCodyGlyHREd3fpk/HatUv94oEahszaBwVLhFkb0Qf0PnDbst9/iV8l8wSiWCvcQ0YkzPmJfrFVGPw+sICBLAIJXlhTaKRHIW1rDoy/20TUb5ygxMjdGlFcOnRC5omXahW7rA3u4Vhkty808vlbF4sWHEevb0LJARD3/3GUNp7nE6GAi6jde48TOH6mO3hCH5cVSYQcRzTfG7tPo6CuvrD9qZ8vQ0IUvm+azfsuIDjW9/lytWn95HLZnfcxi8ZJjiGl/NM+TEX2sWq3f1Gvun/pU4VXTTXrE1GZbrVr39Kta1hljfvYEIHixMkIhkDfBKyB6OWbYgI8or/MyNFIWOOdnpDma2zHDlKQyCJvNgpcRva5arf/eyVuDQ4X3Mk7faYnNxtQkLa7X69tDeZPp0WmxVJgyi2+Naa+vVK76D+sty5cvf3lff/M+IjrI4h9ED0NyWnGocC1x+kdL9w/UqvXjeg05NLT8uCZv3m9q06hV67NCMhPdZpAABG8GnZqEKSGtQd0LEL0zzDIVxXVYBmlIZTBMVxG8+he/0sA7ObGf6/dz9vZabfQ29afB3x0ygnfFihUHaX3Tv7WKXUb85gULDvyoZN6vP0NzdvcF5Qv2mb9jzjbzl5E2Ak7H12p1s6DtoAPBm7PFEsJ0IXhDgIouZwjkLcrrJ4/XWDN5TG0wC1zBITNRXIc3grSVIVMVvGLahuBkxIvV6thI1O+JboJ3cHDwEKY17iWil3XYxunrtVr9gl72Dg0NHNlsaueSxo8hTocwoi1NokcYp/9bq9Xv6nWvENmzZzd6fu7u2sWmrJu4xCavHTsWnM0Ye6BSGf2dGKNQKMyZPZuJPOM3ccYPIk5bGLHfMDb7m5VK5QXDDtFu1qzmmaRpS4nTCYxoExH/7fR0/3WrVq2acPNNuVzu375989lE7DRi7GjifDZj7M9Nat4/q2+fm6644gqRPiJ1DZYGLmTEvurQ+KZatf4xp44geKUQo1EPAhC8WB6hEcib4BUg/aQ1tMTe8PVnrk58XqfXRWOIW1FVIVMpCrJAUpTKYEzJo+CdyaHlbKBWG73a6KtcLmvbd2x5kIi0/RYsfm2vKGqpNPA+Tux6RmyoWh39X7KIzYLbuMec0nDppYVDp6dpPSdabBG7q2q1+qDTOLpI7mvc5FLj+THidK5V+Iq8Vca0O7vGdJ7U3bVq/RR9SxcRK5YKT7Uj0Zw+zvvoGdak7xPRQpsutmmMn1CpjD1WKg28hnP2S2J0uE27hsb4MaKd45xLAxczYl8x50Nb2jaI+Fd37pgsXXfddSKNpOdVLBVE/veRTo2a0337O4lwCF43unjdjQAErxshvO6ZQB7TGn7y3OzHb3++31cd2KykNuRe3FqfnBSKXV08mjatueXwivaDg4MHMK2xRfybN/lxIyNjDxgozK9NTdLLepWjKpYGRolYgRF9v1qt/53KG5FThHf5p5cf3t9o3msVnozoS9Vq/Z+dxiiVlp/OqXkrEc2VsoPThbVa/WtG21KpUOFEJal7W42arHnaqsrV61Z86pI3aE1NpF5IX5zoB31M+2KTN8V97Y2EXUuSaF21Wj/N+nf9i8nOrd8nzj8gOeifGM1+c7Va3ezUvlhcdhoxfofpdZHa0NchphldVqvUhcDuuiB4JT2BZo4EIHixOEIlkLcobxBpDcIhaUptsApbYX/W0xKUH5qUil0vgrdYKtxMREKgil30+7eilDqyOAVvo8G2a33TonZrZ1S0h8gSNl966cDBjWkmKjzIiV1jcXD2tlptdI34v6VS4YOc6BaVdcOb/KSRkbF7WmL7dpV7ldpy/qFabazDNi8CnRP/zcIFB57mFLUvFgd+RIydbdjGiP6pSdQvvuCb7BXVMV5hXjPGaxC8Sl5FYxsCELxYFqESyGOU129aw4xD+PgNZ966NFTnKHYOYasIrP3JzlJRfsxpduYIL9forZP9za4qDfs0+KwG7zuWEX2u9ZN/Q2PaidbKCHEJXkb0AU70TavY5YwKI5X6WC/P2h5VzWk1Y/S13bOba+fs6TuOMfogJ36xpZ+dO3fsOUD81C8ipjt2bHkfETvTOhYn/n6bXOLVtVr9b2fEsh5d7hK8jPhnGn19P55D0zump7UPcOKjtvNg/F800m6emmKb+vqa7yZG3+hoZ8lbHhwceCPT2N2WvnYz4sOMaT/VND7RaNC7ieizXakSjAZrlfoqqx2FQuGvZs2m58x/nz2rccAOpmlzJrXOqDBn767VRmc2PZouCF6P7z+4rU0AgheLIVQCeRS8fk5dMzsj6tQGQ9AKG4wcW/FvRGu9PSLi2OA+xocrlbFxbz0k4y5LHV4poxjROdVq/QfWxnEJXiejGfFPV6tjVzi9vmLFiiO0vumOHFeRLjBSrX/IGoUslQaWc2IdYo8z/tGRypgo02Z7tWrL/sGcdiA2wU1O0lFGOTc7wcsZ/8RIZexb5k5LpWVf5cQv7BjIJnpdLA6sJMbM+wRuq1XrbzfuK5UK3+NEYn7G1WhqzVNWXXm12OTXvlqHdYhSb+aSbk/XqnVRj7njshmzvUGtVBr4Lif2YZMqWVur1LsOk4HglXr00KgHAQheLI/QCSCtwTvioESvVcwKi8SmMfFfCFrv/nG6U4jdkWo9URF6r7P0IniJqEGMXW49CStpgldnwulUp+oKg6XC5xjRF03snt644ZnDbrnllmk7nh0niM08W7+qVutdUV1xr3687o4FIlreuYnLUp7LRvA29luweI41daBYXPYuYvxnZrt275pecM011+w0/60rgvvSSWe1Wv2VrTZig9xkR94v5+fVamP/226+dl8IrDWPWxsVxUl97VQSc5tisfB6YtRxTLDG+FHWzXQQvF6fYNxnEIDgxVoInUAeo7zBpDXMuKaX6O0lZCFmQ1/a9gOkOF/XbkJmwStKqhE1ulIapvrmzGXN6cO0ae14YvyfjKgfI7asWh2tG/0mUvASbePN/qNGRka6jk8eLBW+zYjOM3H5Zq1a/wenlTVYWvZxRvz69uudYrLjNptIKnHGPzlSGetIObARvPfXqvXjrTYMDl7yOqZpesmy1mUbbbVJL9hZq9YXiHtaB3E8Y+57z+zmgVdffrW+CdF2fZQKz5pTMqzR/Va1jR+b7u2yv1gqCMH7+r1teL1WHVtmHg+CN6b3swwNC8GbIWcmeSq/+sO59x2/zwZR87Hrp6ok2+3VNtW0ht18bkeE48XpBffvaC7YW+1hy/67T7h/p352MSKyXr0S/n1pq7ErQ0S1SsPFF188f+68vp8Q0X8V/fNm/2JDTMYseBu8yd7LNP4lIjqxY+6MbH9GLxYL/06M3mK0dTsu2eb427aYNI/nUI/Wtg6tjeAVJctOtvrO5sjex2rV+lHWdpdddtH+k1P9ZnHftnFwsHAy0+g3xj0ivaJarR/Ya50Uhwq/IE7v2MuIXzJSHbvG+P+lUkGUYzvV1MfTjPTT+NpXk+jvLEc7795vwY79y+XrdxuNIHhlnla06UUAghfrIxICZ6/5hqgn6XCx8X21XR1noh84a+f9i/t3upb3et0+f3nc6HS//l2mCIG/aW1vzNNP/HnwxYNtbdjSmP/45qn5juM1pv9y/zO7trTv/fPkMR07wzdMHdEVoXGz+D0P/27tMVs36WkIuJJFICv5unZUVQWv6GNoaNmxTc71cmSM+Luq1bFfiH/HKXgZaW+pVq/6dSuKKd43OqoucKJ/HqnWhRhuX91ijoZGqvWq0+qzCsaXUHQJXocyY49MTdKx9Xp9j7XvaAVvV5R4d61an9fraSsWC78mRm822nDiF41Ux66d8ffFRzOt72FPTyujC2qV+teNeyF4PVHETSYCELxYDpEQOHvNN9e8VHkgF9FdAXTzVD/dPqH/Shj4BeEbOFJ/HWYshcEKw4vgFX0US4VdQlQyoi9Uq/WVsQpei3gqFpctJcb/n3WuogrFyJX1dkWEUmnZ1ebqC5zoFyPV+rucFkypNHAZJ3a56fUHa9X6scb/F9HVqan+hy11gBvN6b5Xr1q1qv3l3dx/lIK3FZ3vODnNpfZyV84v1+hvR66srxZzsPJTfNAeqVXrr4bgVaSG5o4EIHixOCIh8L41X1/CSNNrUubl+tnmhesnuaYcyZXhI0SvaIeIrwytcNpkOaprJuZV8JZKhc26sOO8XKuN6bVWzYKqOd3316tWrXrIyTuDpYG7GLFTgjx4olNIFoY50ect4++cmqmQsEkX6EMDf884E+XMjKvBiP9NtTomKit0XJdeeumCRmPX78yluhixb1Wro59oNWTFYmGtOUVC/ztvvrdWu/qnThyiFLzChrbfDIMYfbtWqYsjjLuuwaGBf2CcdZyC16dNH3Tlldc8c0H5gn3m75gjDpdwPPjC7ck0Dt8Q7RDhdaOF190IQPC6EcLrgRHIW5T3mcnZ69dt2zcUwWt2CsRvYEtUvqOMR3XNILwI3lbJKl00kqWuarFUELn8Czlj7xupjP6rHXRznmlYglc/srdYuN38c7xu7ksHKIxUx0TOKW9VUhART7No2zbdrx131Veu2mDY3mp3JxGd0DEfTm+o1er3ib8Vh5Z9gTjvOM2NEV1ZrdYv7bXwoha8g6XC5y2HQQhUV9Sqo58222mzGU28vKZWrb9Nn2+x8I/ESE9taF27OTOVH7OZNONcVIOY336J8x/XamOiTjEEr/y7E1o6EIDgxdKIjEAeo7w/3iQOmoruMsTvYdu3LZzXmAxdbEc3s2SMlKVyY7JEVQWvXoZq+5ZxI5JpPULYdJBDWxyZbSkUCnNmzSZRXkvf9Bai4KVLPnPJ4jmTmjhFzfH0NTuhqtvL6XbS2DhxLnL5z+o6iY3T7bVa/a2i6eCnCm9hTfp3K3ORIsGIdZU444z/cuH8xdeWy+VG1IK39WVlo83Jck8TZz8njW8jTiKt4zXW+ZgjssVSQeTuHm20MU6O67Xu7EqUGesHEV7ZJxbtnAhA8GJtREqg9+a1SE2JZLA1z+83MdHo69iQF8nArUEggIOhnZf0BTtaHSetNdk7GWs8aG03PWsWY9ONQxhnJzBin9tblqw7gjlYKpQYUWVGM7KRhQsOuFQIOyGUt23b8kam0XXmElVhCl5hw4qhS07VuCais+2LEz05Uq0fJv6g27Vj850ivUJhNW3bM7v5KqOcV7FU+JUh4GX7YETnVqv170YteIV9TjnOvWwXRwVXq/Uv6wK/+7S2P9Sq9dfKzL1YKogDLtqRck4zGwUheGXooY3LGgUgEIiOwPvXfKPMifQNLHm4wty85pXf0c9vXv+azc+I3DpCJNidYhZLjbnPem8LjwdPiNjsT2vV0f9mPZFMTyUoLfs/RPw9xihCYDKiVxipA6IcFuf0W2J0FiN+c7U69hElm7uii3tLo9n1UyoNXMqJfcX0WkdJr1bu8Y1E9D4JO/7EqHlWtXr1E0Zba3kziT5EZFsXkIODg4cwrfGkidWNI9X6/7D2oecQT+/a3v47p/bxxOa25XK5f/uOLSJNw6hS4VDXd9k7mMZF/dyOahZ2thuidO98Bz5GjAleMxenj9dq9W/LzLtYHDiHGPv+3nv55bXa2GfNFT5ar0mLaJlx0Sb7BBDhzb6PEzfDvEV5w9y8FqRzzUIYYljIMjZcq4yaj2ANEndq+iqXy7O379gifuJ+mZvRQrgS0QOcNb+4qnL1Oqf2ep87t3ydcXq3tWIBI7qKsTkrm3yPKGt2JDGq1Sr1ktvY5tfFqWOc8a8xogXE2FdqlVFz5QTbrlqnqok81SebGv/kqivH7rA2LJUKH+REIuf2JOtrumhnVN25fc/V11133ZT59VJp+Vs5NW+2HMPba0r3aWzqHZXKtc+JRoOlwr+wmXH/2JzuO8dps1+xuGyIGBcnwz3Nm/ThkZH6/7cbpFRa9klOfOSlPWo7iLPzarXR2+zarVix4iCtr/EZIvY/7YSviL5zTl+u1ep6GUfjaqVFPCJSRRjRugULFp9uPRmux+RZcajw81Zt34586VKp8FlRPo44PUfEzq/VRnO1EVrlGUDbbgIQvFgVkRPA5rXIkQcyoBDEoiMjOmyIYvHfLOUL5zl9IZCFotjJ8k8vP7xvih/KeeO5kZFrRD4tb+3wf0F0xRkVRir1McVuQ22+YsWKRZo2fSTX6FBOzc2zGH9MVCYIddAYOz/nnHP6XvnKlx8uvoBMT2uzOdeeWLRo4jHzwRA25rHBwcH97U6wk5mKYLxo0aLtCkJZplu0yTEBCN4cOz+uqedt81oS0xrC9r0hjq0C2RhXpFLY2RCkcH5e67OtayrGnSTWkVf9l75ZE/tS84nXNHaXK5Wx8bD5oP/eBEqlZQVOfFS06u+jw664ot7+SR/sQAAEQMALAQheL9Rwj28CeYvyrt668PEXpjXXk+N8g81KB5ueI3ru2ehmw/hSKpchdCMgfsEFF8yaM2fOIqPWrXXIwaFlH2Kcf6/199tq1frbIzALQ4AACGScAARvxh2c1OnlLcobVU3epPpb2q4XXiDa9CyR+G8UF6NhKq/MfZ5uFKiNMUqlwvc40YdEWS+u8Ws1Tvf29dH2qSYt0TidxYkZhxzsnG5oR1911VURfvOJkgTGAgEQiJIABG+UtDFWB4G8RXnTsnktlmUatdAlNk6sOYyobvTeLhYLdWI00HNkThuazb539DqJLXrLMSIIgECaCUDwptl7GbA9TxUbEOW1WbAQuhl4itWnoNd5pWaBiJ1IjA5ulSPbxoh+32T86wvnH3hTuVyeVO8Zd4AACICAPQEIXqyMWAnkrS5v1CevxercXoNHLnT1I7uQvpDYBQHDQAAEQCBcAhC84fJF7xIE8hTljfvkNQl3hN8k8g1pELrhOxUjgAAIgECyCUDwJts/ubAuT1HePJYoay9iCN1cPM+YJAiAAAgkkQAEbxK9kkOb8rSBLVclypC6kMOnGVMGARAAgeQRgOBNnk9yaVGeypTlYvMahG4un2NMGgRAAASSSgCCN6meyaFdeUptyGyJMgjdHD65mDIIgAAIJJ8ABG/yfZQrC/OS2pC5KC+Ebq6eU0wWBEAABNJGAII3bR7LuL15Sm1IfZRXiNwXX4j2CGAcGJHxdwBMDwRAAATCIQDBGw5X9OqDQF5SG1Ib5Y0jmguh6+OJwq0gAAIgAAIQvFgDiSSQl9SGVEV5IXQT+azAKBAAARAAAXcCELzujNAiBgJ5SW1IfJQ3FpHbOhWN+DiVy+MxLD8MCQIgAAIgkDECELwZc2iWppOX1IZERnljEbpsnFhzGCI3S08x5gICIAACySAAwZsMP8AKBwJ5EL2JifLGInKF4yF08QYAAiAAAiAQLgEI3nD5ovcACOQhnzfWKG8sQhciN4BHA12AAAiAAAhIEoDglQSFZvESyLrojTzKG5vI5WsJubnxPkwYHQRAAARySACCN4dOT+OU87CJLfQobywiFykLaXzeYDMIgAAIZI0ABG/WPJrh+WRd9G6e6qfbJxYE60EhcsW16Vki49/BjuDQG1IWIsGMQUAABEAABKQIQPBKYUKjJBHIcnrD6q0LH39hWjvCN+9YorkQub79hg5AAARAAARCIQDBGwpWdBo2gayKXl9RXojcsJcd+gcBEAABEEgpAQjelDoOZhNltWTZmuf3m5ho9C2S8nGcIlcYiIMhpNyERiAAAiAAAvESgOCNlz9G90kgi6LXNcobp8iFwPW5YnE7CIAACIBAHAQgeOOgjjEDJSA2s2mkLeFEKwPtOMbO1u+Y98xju+e+om1C5CJX5OOihFiMSwBDgwAIgAAIBEgAgjdAmOgqXgIi2issSLvw3Tyxhx56fDttnr2I6IWdEVZXwKazeFcwRgcBEAABEAiLAARvWGTRb2wE0pjm0Ba5E3si5IYoboSwMRQIgAAIgECMBCB4Y4SPocMlMCN82Rkvney1JNyR1HsXAlf8b1Prv+o9qN7BxvU7WHNY/y9ycVUBoj0IgAAIgECKCUDwpth5MF2eQBKivtFGcU0CF+JWfqGgJQiAAAiAQCYJQPBm0q2YlBOBKDe4TeyYmmhMNxfp+bihpiogeosVDwIgAAIgAAK9CEDwYn3kmsDejW7BpD4YUVwBNXiRawhbVE/I9aLF5EEABEAABJQJQPAqI8MNWSZgRIDFHGXyf4ON4rYErRjcKAlmwEZaQpaXHeYGAiAAAiAQMgEI3pABo/vsEBBieNvOxvkv7GocsfHZXQvFzJ7evHtCeoa6iDUuPrOJDIJWGh8aggAIgAAIgIBXAhC8XsnhPhAAARAAARAAARAAgVQQgOBNhZtgJAiAAAiAAAiAAAiAgFcCELxeyeE+EAABEAABEAABEACBVBCA4E2Fm2AkCIAACIAACIAACICAVwIQvF7J4T4QAAEQAAEQAAEQAIFUEIDgTYWbYCQIgAAIgAAIgAAIgIBXAv8JbHJIx7R36goAAAAASUVORK5CYII=;" vertex="1" parent="1">
          <mxGeometry x="260" y="100" width="140" height="40" as="geometry" />
        </mxCell>
      </root>
    </mxGraphModel>
  </diagram>
</mxfile>
